<?xml version="1.0" encoding="utf-8"?>
<!-- Generator: Adobe Illustrator 24.3.0, SVG Export Plug-In . SVG Version: 6.00 Build 0)  -->
<svg version="1.1" id="svg1361" xmlns:svg="http://www.w3.org/2000/svg"
	 xmlns="http://www.w3.org/2000/svg" xmlns:xlink="http://www.w3.org/1999/xlink" x="0px" y="0px" viewBox="0 0 6 13"
	 style="enable-background:new 0 0 6 13;" xml:space="preserve">
<style type="text/css">
	.st0{fill:#006193;}
</style>
<g id="layer1" transform="translate(0,-1.53013)">
	<g id="g2111" transform="translate(-94.947,-433.75)">
		<path id="path2117" class="st0" d="M98.2,443.7c0,0.6-0.2,1.1-0.8,1.9c-0.6,0.8-1.2,1.2-1.8,1.8v-3.4c0.2-0.4,0.4-0.7,0.7-1
			c0.3-0.2,0.6-0.4,0.9-0.4c0.5,0,0.9,0.3,1,0.9C98.2,443.4,98.2,443.5,98.2,443.7z M98.1,441.3c-0.4,0-0.9,0.1-1.3,0.4
			c-0.4,0.2-0.9,0.6-1.3,1v-7.3h-0.6v12.5c0,0.4,0.1,0.5,0.3,0.5c0.1,0,0.2-0.1,0.5-0.2c0.6-0.3,0.9-0.6,1.3-0.8
			c0.5-0.3,1-0.6,1.6-1.2c0.5-0.5,0.8-0.9,1-1.4c0.2-0.5,0.3-0.9,0.3-1.4c0-0.7-0.2-1.2-0.5-1.5C99,441.4,98.6,441.3,98.1,441.3z"/>
	</g>
</g>
</svg>
