<?xml version="1.0" encoding="UTF-8" standalone="no"?>
<!-- Created with Inkscape (http://www.inkscape.org/) -->
<svg
   xmlns:dc="http://purl.org/dc/elements/1.1/"
   xmlns:cc="http://web.resource.org/cc/"
   xmlns:rdf="http://www.w3.org/1999/02/22-rdf-syntax-ns#"
   xmlns:svg="http://www.w3.org/2000/svg"
   xmlns="http://www.w3.org/2000/svg"
   xmlns:sodipodi="http://sodipodi.sourceforge.net/DTD/sodipodi-0.dtd"
   xmlns:inkscape="http://www.inkscape.org/namespaces/inkscape"
   width="300"
   height="300"
   id="svg2"
   sodipodi:version="0.32"
   inkscape:version="0.45.1"
   version="1.0"
   sodipodi:docbase="/home/Bill/Desktop"
   sodipodi:docname="Circle_of_fifths.svg"
   inkscape:output_extension="org.inkscape.output.svg.inkscape">
  <defs
     id="defs4" />
  <sodipodi:namedview
     id="base"
     pagecolor="#ffffff"
     bordercolor="#666666"
     borderopacity="1.0"
     gridtolerance="10000"
     guidetolerance="10"
     objecttolerance="10"
     inkscape:pageopacity="0.0"
     inkscape:pageshadow="2"
     inkscape:zoom="0.7"
     inkscape:cx="-126.24003"
     inkscape:cy="160.57487"
     inkscape:document-units="px"
     inkscape:current-layer="layer4"
     width="300px"
     height="300px"
     inkscape:window-width="962"
     inkscape:window-height="739"
     inkscape:window-x="308"
     inkscape:window-y="6" />
  <metadata
     id="metadata7">
    <rdf:RDF>
      <cc:Work
         rdf:about="">
        <dc:format>image/svg+xml</dc:format>
        <dc:type
           rdf:resource="http://purl.org/dc/dcmitype/StillImage" />
      </cc:Work>
    </rdf:RDF>
  </metadata>
  <g
     inkscape:groupmode="layer"
     id="layer3"
     inkscape:label="circles"
     sodipodi:insensitive="true"
     style="display:inline">
    <path
       sodipodi:type="arc"
       style="opacity:1;fill:none;fill-opacity:1;fill-rule:nonzero;stroke:#000000;stroke-width:2.0447762;stroke-linecap:square;stroke-linejoin:miter;stroke-miterlimit:4;stroke-dasharray:none;stroke-dashoffset:0;stroke-opacity:1"
       id="path2240"
       sodipodi:cx="155.71428"
       sodipodi:cy="142.85715"
       sodipodi:rx="97.85714"
       sodipodi:ry="97.85714"
       d="M 253.57142 142.85715 A 97.85714 97.85714 0 1 1  57.85714,142.85715 A 97.85714 97.85714 0 1 1  253.57142 142.85715 z"
       transform="matrix(0.9781022,0,0,0.9781022,-4.4473378,-3.0809701)" />
    <path
       sodipodi:type="arc"
       style="opacity:1;fill:none;fill-opacity:1;fill-rule:nonzero;stroke:#000000;stroke-width:2.72636819;stroke-linecap:square;stroke-linejoin:miter;stroke-miterlimit:4;stroke-dasharray:none;stroke-dashoffset:0;stroke-opacity:1"
       id="path3235"
       sodipodi:cx="155.71428"
       sodipodi:cy="142.85715"
       sodipodi:rx="97.85714"
       sodipodi:ry="97.85714"
       d="M 253.57142 142.85715 A 97.85714 97.85714 0 1 1  57.85714,142.85715 A 97.85714 97.85714 0 1 1  253.57142 142.85715 z"
       transform="matrix(0.7335766,0,0,0.7335766,33.628788,31.851258)" />
  </g>
  <g
     inkscape:groupmode="layer"
     id="layer4"
     inkscape:label="text"
     style="display:inline"
     sodipodi:insensitive="true">
    <path
       style="font-size:16px;font-style:normal;font-variant:normal;font-weight:normal;font-stretch:normal;text-align:start;line-height:100%;writing-mode:lr-tb;text-anchor:start;fill:#000000;fill-opacity:1;fill-rule:nonzero;stroke:none;stroke-width:2;stroke-linecap:square;stroke-linejoin:miter;stroke-miterlimit:4;stroke-dashoffset:0;stroke-opacity:1;font-family:Arial"
       d="M 144.12276,53.651825 C 144.12276,52.297665 144.26078,51.209125 144.53682,50.3862 C 144.81807,49.558085 145.23213,48.920064 145.77901,48.472137 C 146.33109,48.024232 147.0238,47.800274 147.85713,47.800262 C 148.47171,47.800274 149.01077,47.925274 149.47432,48.175262 C 149.93785,48.420065 150.32067,48.776835 150.62276,49.245575 C 150.92483,49.709126 151.16181,50.276834 151.33369,50.9487 C 151.50556,51.615374 151.5915,52.516415 151.59151,53.651825 C 151.5915,54.995579 151.45348,56.081516 151.17744,56.909637 C 150.9014,57.732556 150.48733,58.370576 149.93526,58.8237 C 149.38838,59.271617 148.69567,59.495575 147.85713,59.495575 C 146.75296,59.495575 145.88578,59.099742 145.25557,58.308075 C 144.50036,57.354952 144.12276,55.80287 144.12276,53.651825 M 145.56807,53.651825 C 145.56807,55.532037 145.78682,56.78464 146.22432,57.409637 C 146.66702,58.02943 147.21129,58.339326 147.85713,58.339325 C 148.50296,58.339326 149.04463,58.026826 149.48213,57.401825 C 149.92483,56.776827 150.14619,55.526829 150.14619,53.651825 C 150.14619,51.766416 149.92483,50.513813 149.48213,49.894012 C 149.04463,49.274231 148.49775,48.964335 147.84151,48.964325 C 147.19567,48.964335 146.68005,49.237773 146.29463,49.784637 C 145.81025,50.482563 145.56807,51.771624 145.56807,53.651825"
       id="text3238" />
    <path
       style="font-size:16px;font-style:normal;font-variant:normal;font-weight:normal;font-stretch:normal;text-align:start;line-height:100%;writing-mode:lr-tb;text-anchor:start;fill:#000000;fill-opacity:1;fill-rule:nonzero;stroke:none;stroke-width:2;stroke-linecap:square;stroke-linejoin:miter;stroke-miterlimit:4;stroke-dashoffset:0;stroke-opacity:1;font-family:Arial"
       d="M 227.13057,139.27682 L 228.53682,139.08932 C 228.69828,139.8862 228.97171,140.46172 229.35713,140.81589 C 229.74775,141.16485 230.22171,141.33933 230.77901,141.33932 C 231.44046,141.33933 231.99775,141.11016 232.45088,140.65182 C 232.90921,140.19349 233.13838,139.62579 233.13838,138.9487 C 233.13838,138.30287 232.92744,137.77162 232.50557,137.35495 C 232.08369,136.93308 231.54723,136.72214 230.89619,136.72214 C 230.63057,136.72214 230.29984,136.77423 229.90401,136.87839 L 230.06026,135.64401 C 230.154,135.65444 230.22952,135.65964 230.28682,135.65964 C 230.88577,135.65964 231.42484,135.50339 231.90401,135.19089 C 232.38317,134.87839 232.62275,134.39662 232.62276,133.74557 C 232.62275,133.22996 232.44827,132.80288 232.09932,132.46432 C 231.75036,132.12579 231.29984,131.95652 230.74776,131.95651 C 230.20088,131.95652 229.74515,132.1284 229.38057,132.47214 C 229.01598,132.8159 228.78161,133.33152 228.67744,134.01901 L 227.27119,133.76901 C 227.44307,132.82631 227.83369,132.09715 228.44307,131.58151 C 229.05244,131.06069 229.81025,130.80027 230.71651,130.80026 C 231.3415,130.80027 231.91702,130.93569 232.44307,131.20651 C 232.9691,131.47215 233.37015,131.83673 233.64619,132.30026 C 233.92744,132.76381 234.06806,133.256 234.06807,133.77682 C 234.06806,134.27162 233.93525,134.72215 233.66963,135.12839 C 233.404,135.53464 233.01077,135.85756 232.48994,136.09714 C 233.16702,136.25339 233.69306,136.57891 234.06807,137.0737 C 234.44306,137.56329 234.63056,138.17787 234.63057,138.91745 C 234.63056,139.91745 234.26598,140.76641 233.53682,141.46432 C 232.80765,142.15703 231.88577,142.50339 230.77119,142.50339 C 229.76598,142.50339 228.93005,142.20391 228.26338,141.60495 C 227.60192,141.00599 227.22432,140.22995 227.13057,139.27682"
       id="use3242" />
    <path
       style="font-size:16px;font-style:normal;font-variant:normal;font-weight:normal;font-stretch:normal;text-align:start;line-height:100%;writing-mode:lr-tb;text-anchor:start;fill:#000000;fill-opacity:1;fill-rule:nonzero;stroke:none;stroke-width:2;stroke-linecap:square;stroke-linejoin:miter;stroke-miterlimit:4;stroke-dashoffset:0;stroke-opacity:1;font-family:Arial"
       d="M 61.130569,139.27682 L 62.536819,139.08932 C 62.698276,139.8862 62.971713,140.46172 63.357132,140.81589 C 63.747754,141.16485 64.221712,141.33933 64.779007,141.33932 C 65.44046,141.33933 65.997751,141.11016 66.450882,140.65182 C 66.909209,140.19349 67.138375,139.62579 67.138382,138.9487 C 67.138375,138.30287 66.927438,137.77162 66.505569,137.35495 C 66.083689,136.93308 65.547231,136.72214 64.896194,136.72214 C 64.630565,136.72214 64.299836,136.77423 63.904007,136.87839 L 64.060257,135.64401 C 64.154003,135.65444 64.229524,135.65964 64.286819,135.65964 C 64.885773,135.65964 65.424835,135.50339 65.904007,135.19089 C 66.383168,134.87839 66.622751,134.39662 66.622757,133.74557 C 66.622751,133.22996 66.448272,132.80288 66.099319,132.46432 C 65.750356,132.12579 65.299835,131.95652 64.747757,131.95651 C 64.200878,131.95652 63.74515,132.1284 63.380569,132.47214 C 63.015984,132.8159 62.781609,133.33152 62.677444,134.01901 L 61.271194,133.76901 C 61.443068,132.82631 61.833693,132.09715 62.443069,131.58151 C 63.052442,131.06069 63.810254,130.80027 64.716507,130.80026 C 65.341502,130.80027 65.917022,130.93569 66.443069,131.20651 C 66.969105,131.47215 67.370146,131.83673 67.646194,132.30026 C 67.927437,132.76381 68.068062,133.256 68.068069,133.77682 C 68.068062,134.27162 67.935249,134.72215 67.669632,135.12839 C 67.404,135.53464 67.010771,135.85756 66.489944,136.09714 C 67.167021,136.25339 67.693062,136.57891 68.068069,137.0737 C 68.443061,137.56329 68.630561,138.17787 68.630569,138.91745 C 68.630561,139.91745 68.265978,140.76641 67.536819,141.46432 C 66.807646,142.15703 65.885772,142.50339 64.771194,142.50339 C 63.765983,142.50339 62.930046,142.20391 62.263382,141.60495 C 61.601922,141.00599 61.224319,140.22995 61.130569,139.27682"
       id="use3250" />
    <path
       style="font-size:16px;font-style:normal;font-variant:normal;font-weight:normal;font-stretch:normal;text-align:start;line-height:100%;writing-mode:lr-tb;text-anchor:start;fill:#000000;fill-opacity:1;fill-rule:nonzero;stroke:none;stroke-width:2;stroke-linecap:square;stroke-linejoin:miter;stroke-miterlimit:4;stroke-dashoffset:0;stroke-opacity:1;font-family:Arial"
       d="M 151.41963,216.65182 L 150.02119,216.7612 C 149.89619,216.20913 149.7191,215.80808 149.48994,215.55807 C 149.10973,215.15704 148.64098,214.95652 148.08369,214.95651 C 147.63577,214.95652 147.24254,215.08152 146.90401,215.33151 C 146.4613,215.65444 146.11234,216.12579 145.85713,216.74557 C 145.60192,217.36537 145.46911,218.24819 145.45869,219.39401 C 145.79723,218.87839 146.2113,218.49558 146.70088,218.24557 C 147.19046,217.99558 147.70348,217.87058 148.23994,217.87057 C 149.17744,217.87058 149.97431,218.21694 150.63057,218.90964 C 151.29202,219.59714 151.62275,220.48777 151.62276,221.58151 C 151.62275,222.30027 151.4665,222.96954 151.15401,223.58932 C 150.84671,224.20391 150.42223,224.67526 149.88057,225.00339 C 149.3389,225.33151 148.72431,225.49557 148.03682,225.49557 C 146.86494,225.49557 145.90921,225.06589 145.16963,224.20651 C 144.43005,223.34193 144.06026,221.92006 144.06026,219.94089 C 144.06026,217.72735 144.46911,216.11798 145.28682,215.11276 C 146.00036,214.23777 146.9613,213.80027 148.16963,213.80026 C 149.07067,213.80027 149.80765,214.05288 150.38057,214.55807 C 150.95869,215.06329 151.30504,215.76121 151.41963,216.65182 M 145.67744,221.58932 C 145.67744,222.0737 145.779,222.53724 145.98213,222.97995 C 146.19046,223.42266 146.47952,223.7612 146.84932,223.99557 C 147.21911,224.22474 147.60713,224.33933 148.01338,224.33932 C 148.60713,224.33933 149.11754,224.09974 149.54463,223.62057 C 149.97171,223.14141 150.18525,222.49037 150.18526,221.66745 C 150.18525,220.87579 149.97431,220.25339 149.55244,219.80026 C 149.13056,219.34194 148.59931,219.11277 147.95869,219.11276 C 147.32327,219.11277 146.78421,219.34194 146.34151,219.80026 C 145.8988,220.25339 145.67744,220.84975 145.67744,221.58932"
       id="use3256" />
    <path
       style="font-size:16px;font-style:normal;font-variant:normal;font-weight:normal;font-stretch:normal;text-align:start;line-height:100%;writing-mode:lr-tb;text-anchor:start;fill:#000000;fill-opacity:1;fill-rule:nonzero;stroke:none;stroke-width:2;stroke-linecap:square;stroke-linejoin:miter;stroke-miterlimit:4;stroke-dashoffset:0;stroke-opacity:1;font-family:Arial"
       d="M 223.39339,99.4487 L 223.39339,100.80026 L 215.82307,100.80026 C 215.81266,100.46172 215.86734,100.1362 215.98714,99.8237 C 216.17984,99.308076 216.48714,98.800264 216.90901,98.300262 C 217.33609,97.800265 217.95068,97.222141 218.75276,96.565887 C 219.99755,95.545059 220.83869,94.737769 221.2762,94.144012 C 221.71369,93.545061 221.93244,92.979958 221.93245,92.4487 C 221.93244,91.891417 221.73192,91.422668 221.33089,91.04245 C 220.93505,90.657043 220.41682,90.464335 219.7762,90.464325 C 219.09911,90.464335 218.55745,90.66746 218.1512,91.0737 C 217.74495,91.479959 217.53922,92.042459 217.53401,92.7612 L 216.0887,92.612762 C 216.18766,91.534647 216.56005,90.714335 217.20589,90.151825 C 217.85172,89.584128 218.7189,89.300274 219.80745,89.300262 C 220.9064,89.300274 221.77619,89.604961 222.41682,90.214325 C 223.05744,90.82371 223.37775,91.578918 223.37776,92.47995 C 223.37775,92.938291 223.284,93.388812 223.09651,93.831512 C 222.909,94.274227 222.5965,94.740373 222.15901,95.22995 C 221.72671,95.719538 221.00536,96.391413 219.99495,97.245575 C 219.1512,97.953911 218.60953,98.435681 218.36995,98.690887 C 218.13036,98.940889 217.93245,99.193493 217.7762,99.4487 L 223.39339,99.4487"
       id="use3264" />
    <path
       style="font-size:16px;font-style:normal;font-variant:normal;font-weight:normal;font-stretch:normal;text-align:start;line-height:100%;writing-mode:lr-tb;text-anchor:start;fill:#000000;fill-opacity:1;fill-rule:nonzero;stroke:none;stroke-width:2;stroke-linecap:square;stroke-linejoin:miter;stroke-miterlimit:4;stroke-dashoffset:0;stroke-opacity:1;font-family:Arial"
       d="M 79.633385,99.4487 L 79.633385,100.80026 L 72.063072,100.80026 C 72.052655,100.46172 72.107343,100.1362 72.227135,99.8237 C 72.419842,99.308076 72.727134,98.800264 73.14901,98.300262 C 73.576091,97.800265 74.190674,97.222141 74.99276,96.565887 C 76.237547,95.545059 77.078692,94.737769 77.516197,94.144012 C 77.953691,93.545061 78.172441,92.979958 78.172447,92.4487 C 78.172441,91.891417 77.97192,91.422668 77.570885,91.04245 C 77.175046,90.657043 76.656817,90.464335 76.016197,90.464325 C 75.33911,90.464335 74.797444,90.66746 74.391197,91.0737 C 73.984945,91.479959 73.779216,92.042459 73.77401,92.7612 L 72.328697,92.612762 C 72.427655,91.534647 72.80005,90.714335 73.445885,90.151825 C 74.091716,89.584128 74.958902,89.300274 76.047447,89.300262 C 77.1464,89.300274 78.016191,89.604961 78.656822,90.214325 C 79.297439,90.82371 79.617752,91.578918 79.61776,92.47995 C 79.617752,92.938291 79.524002,93.388812 79.33651,93.831512 C 79.149002,94.274227 78.836502,94.740373 78.39901,95.22995 C 77.966712,95.719538 77.245358,96.391413 76.234947,97.245575 C 75.391193,97.953911 74.849527,98.435681 74.609947,98.690887 C 74.370361,98.940889 74.172445,99.193493 74.016197,99.4487 L 79.633385,99.4487"
       id="use3270" />
    <path
       style="font-size:16px;font-style:normal;font-variant:normal;font-weight:normal;font-stretch:normal;text-align:start;line-height:100%;writing-mode:lr-tb;text-anchor:start;fill:#000000;fill-opacity:1;fill-rule:nonzero;stroke:none;stroke-width:2;stroke-linecap:square;stroke-linejoin:miter;stroke-miterlimit:4;stroke-dashoffset:0;stroke-opacity:1;font-family:Arial"
       d="M 76.750572,183.80026 L 76.750572,181.05807 L 71.781822,181.05807 L 71.781822,179.76901 L 77.008385,172.34714 L 78.156822,172.34714 L 78.156822,179.76901 L 79.703697,179.76901 L 79.703697,181.05807 L 78.156822,181.05807 L 78.156822,183.80026 L 76.750572,183.80026 M 76.750572,179.76901 L 76.750572,174.60495 L 73.164635,179.76901 L 76.750572,179.76901"
       id="use3276" />
    <path
       style="font-size:16px;font-style:normal;font-variant:normal;font-weight:normal;font-stretch:normal;text-align:start;line-height:100%;writing-mode:lr-tb;text-anchor:start;fill:#000000;fill-opacity:1;fill-rule:nonzero;stroke:none;stroke-width:2;stroke-linecap:square;stroke-linejoin:miter;stroke-miterlimit:4;stroke-dashoffset:0;stroke-opacity:1;font-family:Arial"
       d="M 190.91963,70.420265 L 189.51338,70.420265 L 189.51338,61.459328 C 189.17484,61.782253 188.72952,62.105169 188.17744,62.428078 C 187.63057,62.751002 187.13838,62.993189 186.70088,63.15464 L 186.70088,61.795265 C 187.48734,61.425483 188.17484,60.977566 188.76338,60.451515 C 189.35192,59.925484 189.76859,59.415068 190.01338,58.920265 L 190.91963,58.920265 L 190.91963,70.420265"
       id="use3282" />
    <path
       style="font-size:16px;font-style:normal;font-variant:normal;font-weight:normal;font-stretch:normal;text-align:start;line-height:100%;writing-mode:lr-tb;text-anchor:start;fill:#000000;fill-opacity:1;fill-rule:nonzero;stroke:none;stroke-width:2;stroke-linecap:square;stroke-linejoin:miter;stroke-miterlimit:4;stroke-dashoffset:0;stroke-opacity:1;font-family:Arial"
       d="M 107.91962,70.420265 L 106.51337,70.420265 L 106.51337,61.459328 C 106.17483,61.782253 105.72952,62.105169 105.17744,62.428078 C 104.63056,62.751002 104.13837,62.993189 103.70087,63.15464 L 103.70087,61.795265 C 104.48733,61.425483 105.17483,60.977566 105.76337,60.451515 C 106.35191,59.925484 106.76858,59.415068 107.01337,58.920265 L 107.91962,58.920265 L 107.91962,70.420265"
       id="use3288" />
    <path
       style="font-size:16px;font-style:normal;font-variant:normal;font-weight:normal;font-stretch:normal;text-align:start;line-height:100%;writing-mode:lr-tb;text-anchor:start;fill:#000000;fill-opacity:1;fill-rule:nonzero;stroke:none;stroke-width:2;stroke-linecap:square;stroke-linejoin:miter;stroke-miterlimit:4;stroke-dashoffset:0;stroke-opacity:1;font-family:Arial"
       d="M 102.62275,211.18027 L 104.09931,211.05527 C 104.20868,211.77402 104.46129,212.31569 104.85712,212.68027 C 105.25816,213.03964 105.73993,213.21933 106.30244,213.21933 C 106.97952,213.21933 107.55243,212.96412 108.02119,212.4537 C 108.48993,211.94329 108.72431,211.26621 108.72431,210.42245 C 108.72431,209.62038 108.49774,208.98756 108.04462,208.52402 C 107.5967,208.06048 107.00816,207.82871 106.279,207.8287 C 105.82587,207.82871 105.41702,207.93288 105.05244,208.1412 C 104.68785,208.34434 104.40139,208.60996 104.19306,208.93808 L 102.87275,208.7662 L 103.98212,202.88339 L 109.67744,202.88339 L 109.67744,204.22714 L 105.10712,204.22714 L 104.48994,207.30527 C 105.17743,206.82611 105.89879,206.58652 106.654,206.58652 C 107.65399,206.58652 108.49774,206.93288 109.18525,207.62558 C 109.87274,208.31829 110.21649,209.20892 110.2165,210.29745 C 110.21649,211.33392 109.91441,212.22975 109.31025,212.98495 C 108.57587,213.91204 107.57326,214.37558 106.30244,214.37558 C 105.26077,214.37558 104.40921,214.08391 103.74775,213.50058 C 103.0915,212.91725 102.7165,212.14381 102.62275,211.18027"
       id="use3294" />
    <path
       style="font-size:16px;font-style:normal;font-variant:normal;font-weight:normal;font-stretch:normal;text-align:start;line-height:100%;writing-mode:lr-tb;text-anchor:start;fill:#000000;fill-opacity:1;fill-rule:nonzero;stroke:none;stroke-width:2;stroke-linecap:square;stroke-linejoin:miter;stroke-miterlimit:4;stroke-dashoffset:0;stroke-opacity:1;font-family:Arial"
       d="M 185.62276,211.18027 L 187.09932,211.05527 C 187.20869,211.77402 187.4613,212.31569 187.85713,212.68027 C 188.25817,213.03964 188.73994,213.21933 189.30244,213.21933 C 189.97952,213.21933 190.55244,212.96412 191.02119,212.4537 C 191.48994,211.94329 191.72431,211.26621 191.72432,210.42245 C 191.72431,209.62038 191.49775,208.98756 191.04463,208.52402 C 190.59671,208.06048 190.00817,207.82871 189.27901,207.8287 C 188.82588,207.82871 188.41702,207.93288 188.05244,208.1412 C 187.68786,208.34434 187.4014,208.60996 187.19307,208.93808 L 185.87276,208.7662 L 186.98213,202.88339 L 192.67744,202.88339 L 192.67744,204.22714 L 188.10713,204.22714 L 187.48994,207.30527 C 188.17744,206.82611 188.89879,206.58652 189.65401,206.58652 C 190.654,206.58652 191.49775,206.93288 192.18526,207.62558 C 192.87275,208.31829 193.2165,209.20892 193.21651,210.29745 C 193.2165,211.33392 192.91442,212.22975 192.31026,212.98495 C 191.57588,213.91204 190.57327,214.37558 189.30244,214.37558 C 188.26077,214.37558 187.40921,214.08391 186.74776,213.50058 C 186.09151,212.91725 185.71651,212.14381 185.62276,211.18027"
       id="use3300" />
    <path
       style="font-size:16px;font-style:normal;font-variant:normal;font-weight:normal;font-stretch:normal;text-align:start;line-height:100%;writing-mode:lr-tb;text-anchor:start;fill:#000000;fill-opacity:1;fill-rule:nonzero;stroke:none;stroke-width:2;stroke-linecap:square;stroke-linejoin:miter;stroke-miterlimit:4;stroke-dashoffset:0;stroke-opacity:1;font-family:Arial"
       d="M 220.51057,183.80026 L 220.51057,181.05807 L 215.54182,181.05807 L 215.54182,179.76901 L 220.76839,172.34714 L 221.91682,172.34714 L 221.91682,179.76901 L 223.4637,179.76901 L 223.4637,181.05807 L 221.91682,181.05807 L 221.91682,183.80026 L 220.51057,183.80026 M 220.51057,179.76901 L 220.51057,174.60495 L 216.92464,179.76901 L 220.51057,179.76901"
       id="use3306" />
    <path
       style="font-size:28px;font-style:normal;font-variant:normal;font-weight:normal;font-stretch:normal;text-align:start;line-height:100%;writing-mode:lr-tb;text-anchor:start;fill:#000000;fill-opacity:1;fill-rule:nonzero;stroke:none;stroke-width:2;stroke-linecap:square;stroke-linejoin:miter;stroke-miterlimit:4;stroke-dashoffset:0;stroke-opacity:1;font-family:Arial"
       d="M 153.34988,19.613804 L 156.00223,20.283726 C 155.44622,22.462115 154.44362,24.125525 152.99442,25.27396 C 151.5543,26.413283 149.79063,26.982944 147.7034,26.982944 C 145.54323,26.982944 143.78412,26.545445 142.42606,25.670444 C 141.07709,24.786332 140.04715,23.510291 139.33621,21.842319 C 138.63439,20.174357 138.28348,18.383343 138.28348,16.469273 C 138.28348,14.382045 138.67996,12.563688 139.47293,11.014194 C 140.27501,9.4556179 141.40978,8.2752806 142.87723,7.4731789 C 144.35378,6.6620009 145.97618,6.2564024 147.74442,6.256382 C 149.74961,6.2564024 151.43581,6.7668185 152.80301,7.787632 C 154.17018,8.8084832 155.12265,10.244029 155.66043,12.094273 L 153.0491,12.709507 C 152.58424,11.251189 151.90976,10.189341 151.02567,9.5239601 C 150.14154,8.8586133 149.02956,8.5259314 147.68973,8.5259132 C 146.14935,8.5259314 144.85964,8.8950716 143.82059,9.6333351 C 142.79063,10.371633 142.06602,11.365121 141.64676,12.613804 C 141.22748,13.8534 141.01785,15.133998 141.01785,16.455601 C 141.01785,18.160036 141.26394,19.650269 141.75613,20.926304 C 142.25743,22.193235 143.03217,23.141151 144.08035,23.770054 C 145.12852,24.398962 146.26329,24.713415 147.48465,24.713413 C 148.97031,24.713415 150.22813,24.28503 151.25809,23.428257 C 152.28802,22.57149 152.98528,21.300007 153.34988,19.613804"
       id="text3453" />
    <path
       style="font-size:28px;font-style:normal;font-variant:normal;font-weight:normal;font-stretch:normal;text-align:start;line-height:100%;writing-mode:lr-tb;text-anchor:start;fill:#000000;fill-opacity:1;fill-rule:nonzero;stroke:none;stroke-width:2;stroke-linecap:square;stroke-linejoin:miter;stroke-miterlimit:4;stroke-dashoffset:0;stroke-opacity:1;font-family:Arial"
       d="M 207.82661,34.834209 L 207.82661,32.482647 L 216.31685,32.468975 L 216.31685,39.906475 C 215.01344,40.945539 213.66904,41.729393 212.28365,42.258038 C 210.89821,42.777569 209.47634,43.037334 208.01802,43.037334 C 206.04926,43.037334 204.25825,42.618064 202.64497,41.779522 C 201.0408,40.931867 199.82856,39.710515 199.00826,38.115459 C 198.18794,36.520414 197.77778,34.738514 197.77779,32.769756 C 197.77778,30.819247 198.18338,29.00089 198.99458,27.314678 C 199.81489,25.619383 200.99067,24.361572 202.52193,23.541241 C 204.05317,22.720948 205.81684,22.310792 207.81294,22.310772 C 209.26215,22.310792 210.57009,22.547771 211.73677,23.021709 C 212.91254,23.486572 213.83311,24.138264 214.49849,24.976788 C 215.16384,25.815346 215.66969,26.909095 216.01607,28.258038 L 213.62349,28.914288 C 213.32269,27.893469 212.94899,27.091387 212.5024,26.508038 C 212.05577,25.924721 211.41775,25.459878 210.58833,25.113506 C 209.75889,24.758056 208.83832,24.580321 207.82661,24.580303 C 206.61436,24.580321 205.56619,24.76717 204.68208,25.14085 C 203.79796,25.505451 203.08247,25.988523 202.5356,26.590069 C 201.99783,27.191647 201.57856,27.852453 201.27779,28.572491 C 200.76737,29.812087 200.51216,31.156487 200.51216,32.605694 C 200.51216,34.39216 200.8175,35.886951 201.42818,37.090069 C 202.04796,38.293198 202.94575,39.186426 204.12154,39.769756 C 205.29731,40.353092 206.54601,40.644758 207.86763,40.644756 C 209.01605,40.644758 210.13715,40.426009 211.23091,39.988506 C 212.32465,39.541895 213.15407,39.067937 213.71919,38.566631 L 213.71919,34.834209 L 207.82661,34.834209"
       id="text3457" />
    <path
       style="font-size:28px;font-style:normal;font-variant:normal;font-weight:normal;font-stretch:normal;text-align:start;line-height:100%;writing-mode:lr-tb;text-anchor:start;fill:#000000;fill-opacity:1;fill-rule:nonzero;stroke:none;stroke-width:2;stroke-linecap:square;stroke-linejoin:miter;stroke-miterlimit:4;stroke-dashoffset:0;stroke-opacity:1;font-family:Arial"
       d="M 242.61223,86.545601 L 242.61223,66.502632 L 249.51653,66.502632 C 251.07511,66.502652 252.26456,66.598355 253.08488,66.789742 C 254.23331,67.054084 255.21313,67.532599 256.02434,68.225288 C 257.08161,69.118535 257.87002,70.262414 258.38957,71.656929 C 258.9182,73.042359 259.18252,74.628295 259.18254,76.414742 C 259.18252,77.936886 259.00479,79.285843 258.64934,80.461617 C 258.29385,81.637403 257.83812,82.612662 257.28215,83.387398 C 256.72614,84.153025 256.11547,84.759144 255.45012,85.205757 C 254.79385,85.643258 253.99633,85.97594 253.05754,86.203804 C 252.12784,86.431669 251.05688,86.545601 249.84465,86.545601 L 242.61223,86.545601 M 245.26457,84.180367 L 249.54387,84.180367 C 250.86547,84.180369 251.89998,84.057322 252.64738,83.811226 C 253.40388,83.565135 254.00544,83.218781 254.45207,82.772163 C 255.08096,82.143262 255.56859,81.300163 255.91496,80.242867 C 256.27042,79.176468 256.44815,77.886755 256.44817,76.373726 C 256.44815,74.277384 256.1018,72.668662 255.4091,71.547554 C 254.7255,70.417362 253.89151,69.660852 252.90715,69.278023 C 252.1962,69.004603 251.05232,68.867884 249.47551,68.867867 L 245.26457,68.867867 L 245.26457,84.180367"
       id="text3461" />
    <path
       style="font-size:28px;font-style:normal;font-variant:normal;font-weight:normal;font-stretch:normal;text-align:start;line-height:100%;writing-mode:lr-tb;text-anchor:start;fill:#000000;fill-opacity:1;fill-rule:nonzero;stroke:none;stroke-width:2;stroke-linecap:square;stroke-linejoin:miter;stroke-miterlimit:4;stroke-dashoffset:0;stroke-opacity:1;font-family:Arial"
       d="M 257.57288,146.45006 L 265.27014,126.40709 L 268.12756,126.40709 L 276.33069,146.45006 L 273.3092,146.45006 L 270.97131,140.37975 L 262.59045,140.37975 L 260.38928,146.45006 L 257.57288,146.45006 M 263.35608,138.21959 L 270.151,138.21959 L 268.0592,132.66881 C 267.42117,130.98263 266.94722,129.59721 266.63733,128.51256 C 266.38211,129.79773 266.02209,131.07377 265.55725,132.34068 L 263.35608,138.21959"
       id="text3465" />
    <path
       style="font-size:28px;font-style:normal;font-variant:normal;font-weight:normal;font-stretch:normal;text-align:start;line-height:100%;writing-mode:lr-tb;text-anchor:start;fill:#000000;fill-opacity:1;fill-rule:nonzero;stroke:none;stroke-width:2;stroke-linecap:square;stroke-linejoin:miter;stroke-miterlimit:4;stroke-dashoffset:0;stroke-opacity:1;font-family:Arial"
       d="M 243.41887,206.35452 L 243.41887,186.31155 L 257.91106,186.31155 L 257.91106,188.67679 L 246.07121,188.67679 L 246.07121,194.81546 L 257.1591,194.81546 L 257.1591,197.16702 L 246.07121,197.16702 L 246.07121,203.98929 L 258.3759,203.98929 L 258.3759,206.35452 L 243.41887,206.35452"
       id="text3469" />
    <path
       style="font-size:28px;font-style:normal;font-variant:normal;font-weight:normal;font-stretch:normal;text-align:start;line-height:100%;writing-mode:lr-tb;text-anchor:start;fill:#000000;fill-opacity:1;fill-rule:nonzero;stroke:none;stroke-width:2;stroke-linecap:square;stroke-linejoin:miter;stroke-miterlimit:4;stroke-dashoffset:0;stroke-opacity:1;font-family:Arial"
       d="M 199.47993,250.20459 L 199.47993,230.16162 L 206.99947,230.16162 C 208.5307,230.16164 209.75662,230.36672 210.6772,230.77686 C 211.60687,231.17792 212.33148,231.80226 212.85103,232.6499 C 213.37966,233.48846 213.64398,234.36802 213.644,235.28857 C 213.64398,236.14536 213.41156,236.952 212.94673,237.7085 C 212.48187,238.46502 211.78005,239.07569 210.84126,239.54053 C 212.05349,239.89601 212.98317,240.50213 213.63033,241.35889 C 214.28656,242.21567 214.61468,243.22738 214.6147,244.39404 C 214.61468,245.33285 214.41416,246.20785 214.01314,247.01904 C 213.62119,247.82113 213.13356,248.44092 212.55025,248.87842 C 211.9669,249.31592 211.23318,249.6486 210.34908,249.87646 C 209.47406,250.09521 208.39854,250.20459 207.12251,250.20459 L 199.47993,250.20459 M 202.13228,238.5835 L 206.46626,238.5835 C 207.64203,238.58351 208.48513,238.50603 208.99556,238.35107 C 209.67003,238.15057 210.17589,237.81788 210.51314,237.35303 C 210.85948,236.8882 211.03266,236.30486 211.03267,235.60303 C 211.03266,234.93768 210.87315,234.35435 210.55415,233.85303 C 210.23513,233.34263 209.7794,232.99627 209.18697,232.81396 C 208.59451,232.62258 207.57823,232.52687 206.13814,232.52686 L 202.13228,232.52686 L 202.13228,238.5835 M 202.13228,247.83936 L 207.12251,247.83936 C 207.97927,247.83936 208.58083,247.80746 208.9272,247.74365 C 209.53787,247.63428 210.04828,247.45199 210.45845,247.19678 C 210.86859,246.94157 211.20583,246.57243 211.47017,246.08936 C 211.73448,245.59717 211.86664,245.03207 211.86665,244.39404 C 211.86664,243.64665 211.67523,242.99952 211.29243,242.45264 C 210.90961,241.89666 210.37641,241.50929 209.69283,241.29053 C 209.01833,241.06267 208.04308,240.94874 206.76704,240.94873 L 202.13228,240.94873 L 202.13228,247.83936"
       id="text3473" />
    <path
       style="font-size:28px;font-style:normal;font-variant:normal;font-weight:normal;font-stretch:normal;text-align:start;line-height:100%;writing-mode:lr-tb;text-anchor:start;fill:#000000;fill-opacity:1;fill-rule:nonzero;stroke:none;stroke-width:2;stroke-linecap:square;stroke-linejoin:miter;stroke-miterlimit:4;stroke-dashoffset:0;stroke-opacity:1;font-family:Arial"
       d="M 51.693752,283.09717 C 50.335674,281.38362 49.187238,279.37842 48.24844,277.08154 C 47.309636,274.78467 46.840235,272.40577 46.840237,269.94482 C 46.840235,267.77556 47.191146,265.69744 47.892971,263.71045 C 48.71328,261.40448 49.980206,259.1076 51.693752,256.81982 L 53.457424,256.81982 C 52.354552,258.71568 51.625386,260.06919 51.269924,260.88037 C 50.713929,262.1382 50.276429,263.4507 49.957424,264.81787 C 49.565493,266.52231 49.369529,268.23585 49.369534,269.9585 C 49.369529,274.34261 50.732158,278.72217 53.457424,283.09717 L 51.693752,283.09717 M 89.017971,283.09717 L 87.254299,283.09717 C 89.979555,278.72217 91.342184,274.34261 91.34219,269.9585 C 91.342184,268.24496 91.146221,266.5451 90.754299,264.85889 C 90.444398,263.49171 90.011456,262.17921 89.455471,260.92139 C 89.099999,260.10109 88.366276,258.73391 87.254299,256.81982 L 89.017971,256.81982 C 90.731508,259.1076 91.998433,261.40448 92.818752,263.71045 C 93.520567,265.69744 93.871478,267.77556 93.871487,269.94482 C 93.871478,272.40577 93.39752,274.78467 92.449612,277.08154 C 91.510804,279.37842 90.366925,281.38362 89.017971,283.09717"
       id="text3481" />
    <path
       style="font-size:28px;font-style:normal;font-variant:normal;font-weight:normal;font-stretch:normal;text-align:start;line-height:100%;writing-mode:lr-tb;text-anchor:start;fill:#000000;fill-opacity:1;fill-rule:nonzero;stroke:none;stroke-width:2;stroke-linecap:square;stroke-linejoin:miter;stroke-miterlimit:4;stroke-dashoffset:0;stroke-opacity:1;font-family:Arial"
       d="M 80.477654,42.695538 L 80.477654,22.652569 L 93.999138,22.652569 L 93.999138,25.017803 L 83.129997,25.017803 L 83.129997,31.224834 L 92.536247,31.224834 L 92.536247,33.590069 L 83.129997,33.590069 L 83.129997,42.695538 L 80.477654,42.695538"
       id="text3485" />
    <path
       style="font-size:18px;font-style:normal;font-variant:normal;font-weight:normal;font-stretch:normal;text-align:start;line-height:100%;writing-mode:lr-tb;text-anchor:start;fill:#000000;fill-opacity:1;fill-rule:nonzero;stroke:none;stroke-width:2;stroke-linecap:square;stroke-linejoin:miter;stroke-miterlimit:4;stroke-dashoffset:0;stroke-opacity:1;font-family:Arial"
       d="M 149.47195,85.294518 C 148.88601,85.792565 148.32058,86.144127 147.77567,86.349205 C 147.2366,86.554283 146.65652,86.656822 146.03543,86.656822 C 145.01004,86.656822 144.22195,86.407799 143.67117,85.909752 C 143.12039,85.405847 142.845,84.764246 142.845,83.984947 C 142.845,83.527919 142.94754,83.111904 143.15262,82.7369 C 143.36355,82.356045 143.63602,82.051358 143.97,81.822838 C 144.30984,81.594327 144.6907,81.421476 145.11258,81.304283 C 145.42312,81.222257 145.89187,81.143156 146.51883,81.066978 C 147.79617,80.91464 148.7366,80.733 149.34012,80.522057 C 149.34597,80.305266 149.3489,80.167571 149.34891,80.108971 C 149.3489,79.464446 149.19949,79.010345 148.90067,78.746666 C 148.49636,78.389252 147.89578,78.210541 147.09891,78.210533 C 146.35476,78.210541 145.80398,78.342377 145.44656,78.606041 C 145.095,78.863861 144.83426,79.323822 144.66434,79.985924 L 143.11746,79.774986 C 143.25809,79.112884 143.48953,78.579682 143.8118,78.175377 C 144.13406,77.765229 144.59988,77.451753 145.20926,77.234947 C 145.81863,77.0123 146.52468,76.900972 147.32742,76.900963 C 148.12429,76.900972 148.77175,76.994722 149.26981,77.182213 C 149.76785,77.369722 150.13406,77.607026 150.36844,77.894127 C 150.60281,78.175385 150.76687,78.532807 150.86063,78.966393 C 150.91335,79.235931 150.93972,79.722259 150.93973,80.425377 L 150.93973,82.534752 C 150.93972,84.005457 150.97195,84.937097 151.03641,85.329674 C 151.10671,85.716393 151.24148,86.088463 151.4407,86.445885 L 149.78836,86.445885 C 149.62429,86.11776 149.51882,85.733971 149.47195,85.294518 M 149.34012,81.761314 C 148.76589,81.995694 147.90457,82.194912 146.75613,82.358971 C 146.10574,82.452725 145.64578,82.558193 145.37625,82.675377 C 145.10672,82.792568 144.89871,82.965419 144.75223,83.193932 C 144.60574,83.416591 144.5325,83.665614 144.5325,83.941002 C 144.5325,84.362879 144.6907,84.714441 145.00711,84.995689 C 145.32937,85.276941 145.79812,85.417565 146.41336,85.417564 C 147.02273,85.417565 147.56472,85.28573 148.03934,85.022057 C 148.51394,84.752527 148.86257,84.386316 149.08524,83.923424 C 149.25515,83.566005 149.34011,83.038662 149.34012,82.341393 L 149.34012,81.761314"
       id="text3794" />
    <path
       style="font-size:18px;font-style:normal;font-variant:normal;font-weight:normal;font-stretch:normal;text-align:start;line-height:100%;writing-mode:lr-tb;text-anchor:start;fill:#000000;fill-opacity:1;fill-rule:nonzero;stroke:none;stroke-width:2;stroke-linecap:square;stroke-linejoin:miter;stroke-miterlimit:4;stroke-dashoffset:0;stroke-opacity:1;display:inline;font-family:Arial"
       d="M 191.88989,115.44064 L 190.42212,115.44064 L 190.42212,102.55588 L 192.00415,102.55588 L 192.00415,107.15256 C 192.67212,106.31468 193.52465,105.89573 194.56177,105.89572 C 195.13598,105.89573 195.67797,106.01292 196.18774,106.24728 C 196.70336,106.47581 197.12524,106.801 197.45337,107.22287 C 197.78734,107.63889 198.04809,108.1428 198.2356,108.73459 C 198.42309,109.32639 198.51684,109.9592 198.51685,110.63303 C 198.51684,112.23264 198.12133,113.46897 197.33032,114.34201 C 196.5393,115.21506 195.59008,115.65158 194.48267,115.65158 C 193.3811,115.65158 192.51684,115.19162 191.88989,114.2717 L 191.88989,115.44064 M 191.87231,110.70334 C 191.87231,111.82248 192.02466,112.63108 192.32935,113.12912 C 192.82739,113.94357 193.50122,114.3508 194.35083,114.3508 C 195.04223,114.3508 195.63989,114.05197 196.1438,113.45432 C 196.6477,112.8508 196.89965,111.95432 196.89966,110.76486 C 196.89965,109.54612 196.65649,108.6467 196.17017,108.06662 C 195.68969,107.48655 195.10668,107.19651 194.42114,107.1965 C 193.72973,107.19651 193.13208,107.49827 192.62817,108.10178 C 192.12426,108.69944 191.87231,109.56663 191.87231,110.70334"
       id="text3798" />
    <path
       style="font-size:18px;font-style:normal;font-variant:normal;font-weight:normal;font-stretch:normal;text-align:start;line-height:100%;writing-mode:lr-tb;text-anchor:start;fill:#000000;fill-opacity:1;fill-rule:nonzero;stroke:none;stroke-width:2;stroke-linecap:square;stroke-linejoin:miter;stroke-miterlimit:4;stroke-dashoffset:0;stroke-opacity:1;display:inline;font-family:Arial"
       d="M 95.002449,137.67662 L 96.558113,137.87877 C 96.388183,138.95104 95.95166,139.79186 95.248543,140.40123 C 94.55127,141.00475 93.692873,141.3065 92.673347,141.3065 C 91.396,141.3065 90.367681,140.89049 89.588387,140.05846 C 88.814948,139.22057 88.42823,138.02233 88.42823,136.46373 C 88.42823,135.45592 88.595222,134.57409 88.929207,133.81822 C 89.26319,133.06237 89.770025,132.49694 90.449715,132.12193 C 91.135258,131.74108 91.879398,131.55065 92.682137,131.55064 C 93.695802,131.55065 94.524903,131.80847 95.169441,132.32408 C 95.813964,132.83386 96.22705,133.56042 96.408699,134.50377 L 94.870613,134.74107 C 94.724122,134.11413 94.46338,133.64245 94.088387,133.32603 C 93.71924,133.00964 93.270998,132.85143 92.74366,132.85143 C 91.946781,132.85143 91.29932,133.13854 90.801277,133.71275 C 90.303228,134.28112 90.054205,135.18346 90.054207,136.41978 C 90.054205,137.67369 90.294439,138.58483 90.77491,139.15318 C 91.255375,139.72154 91.882328,140.00572 92.655769,140.00572 C 93.276858,140.00572 93.795412,139.81529 94.211433,139.43443 C 94.627442,139.05358 94.891114,138.46764 95.002449,137.67662"
       id="text3802" />
    <path
       style="font-size:18px;font-style:normal;font-variant:normal;font-weight:normal;font-stretch:normal;text-align:start;line-height:100%;writing-mode:lr-tb;text-anchor:start;fill:#000000;fill-opacity:1;fill-rule:nonzero;stroke:none;stroke-width:2;stroke-linecap:square;stroke-linejoin:miter;stroke-miterlimit:4;stroke-dashoffset:0;stroke-opacity:1;display:inline;font-family:Arial"
       d="M 122.3976,95.438866 L 122.3976,94.261131 C 121.80579,95.186913 120.93568,95.649803 119.78725,95.649803 C 119.0431,95.649803 118.35756,95.444725 117.73061,95.034569 C 117.10951,94.624413 116.62611,94.053125 116.28041,93.320702 C 115.94057,92.582423 115.77064,91.735744 115.77065,90.780663 C 115.77064,89.849028 115.92592,89.005278 116.23647,88.249413 C 116.54701,87.487702 117.01283,86.904695 117.63393,86.500389 C 118.25502,86.096102 118.94935,85.893953 119.71693,85.893944 C 120.27943,85.893953 120.78041,86.01407 121.21986,86.254295 C 121.65931,86.488679 122.01673,86.796296 122.29213,87.177147 L 122.29213,82.5541 L 123.86537,82.5541 L 123.86537,95.438866 L 122.3976,95.438866 M 117.39662,90.780663 C 117.39662,91.975978 117.64857,92.869532 118.15248,93.461327 C 118.65638,94.053125 119.25111,94.349023 119.93666,94.349022 C 120.62806,94.349023 121.214,94.067773 121.69447,93.505272 C 122.18079,92.936915 122.42396,92.072658 122.42397,90.912498 C 122.42396,89.635161 122.17786,88.697661 121.68568,88.099998 C 121.19349,87.50235 120.58705,87.203522 119.86635,87.203514 C 119.16322,87.203522 118.57435,87.490631 118.09975,88.064842 C 117.63099,88.639068 117.39662,89.54434 117.39662,90.780663"
       id="text3806" />
    <path
       style="font-size:18px;font-style:normal;font-variant:normal;font-weight:normal;font-stretch:normal;text-align:start;line-height:100%;writing-mode:lr-tb;text-anchor:start;fill:#000000;fill-opacity:1;fill-rule:nonzero;stroke:none;stroke-width:2;stroke-linecap:square;stroke-linejoin:miter;stroke-miterlimit:4;stroke-dashoffset:0;stroke-opacity:1;display:inline;font-family:Arial"
       d="M 177.08244,90.763084 L 178.71721,90.965233 C 178.45939,91.920313 177.98185,92.661523 177.28459,93.188866 C 176.58732,93.716209 175.69669,93.979881 174.61272,93.979881 C 173.24748,93.979881 172.1635,93.560936 171.36076,92.723045 C 170.56389,91.879297 170.16545,90.698634 170.16545,89.181053 C 170.16545,87.610747 170.56975,86.391998 171.37834,85.524803 C 172.18693,84.657625 173.23576,84.224031 174.52483,84.224022 C 175.77287,84.224031 176.7924,84.648836 177.58342,85.498436 C 178.37443,86.348053 178.76993,87.543364 178.76994,89.084373 C 178.76993,89.178128 178.767,89.318753 178.76115,89.506248 L 171.80022,89.506248 C 171.85881,90.531642 172.14885,91.316798 172.67033,91.861717 C 173.19181,92.40664 173.8422,92.679101 174.62151,92.6791 C 175.20158,92.679101 175.69669,92.526758 176.10686,92.222069 C 176.51701,91.917383 176.8422,91.431055 177.08244,90.763084 M 171.88811,88.205467 L 177.10002,88.205467 C 177.0297,87.420317 176.83048,86.831451 176.50237,86.438866 C 175.99845,85.829499 175.34513,85.524811 174.5424,85.524803 C 173.81584,85.524811 173.20353,85.767975 172.70549,86.254295 C 172.2133,86.740631 171.94084,87.39102 171.88811,88.205467"
       id="text3810" />
    <path
       style="font-size:18px;font-style:normal;font-variant:normal;font-weight:normal;font-stretch:normal;text-align:start;line-height:100%;writing-mode:lr-tb;text-anchor:start;fill:#000000;fill-opacity:1;fill-rule:nonzero;stroke:none;stroke-width:2;stroke-linecap:square;stroke-linejoin:miter;stroke-miterlimit:4;stroke-dashoffset:0;stroke-opacity:1;display:inline;font-family:Arial"
       d="M 98.484688,170.30566 L 98.484688,162.20215 L 97.087227,162.20215 L 97.087227,160.97168 L 98.484688,160.97168 L 98.484688,159.97852 C 98.484686,159.35157 98.54035,158.88575 98.65168,158.58105 C 98.804022,158.17091 99.070623,157.83986 99.451485,157.58789 C 99.838201,157.33009 100.37726,157.20118 101.06867,157.20117 C 101.51398,157.20118 102.00617,157.25392 102.54523,157.35938 L 102.30793,158.73926 C 101.9798,158.68068 101.66925,158.65138 101.37629,158.65137 C 100.89582,158.65138 100.55597,158.75392 100.35676,158.95898 C 100.15754,159.16407 100.05793,159.54786 100.05793,160.11035 L 100.05793,160.97168 L 101.87727,160.97168 L 101.87727,162.20215 L 100.05793,162.20215 L 100.05793,170.30566 L 98.484688,170.30566"
       id="text3814" />
    <path
       style="font-size:18px;font-style:normal;font-variant:normal;font-weight:normal;font-stretch:normal;text-align:start;line-height:100%;writing-mode:lr-tb;text-anchor:start;fill:#000000;fill-opacity:1;fill-rule:nonzero;stroke:none;stroke-width:2;stroke-linecap:square;stroke-linejoin:miter;stroke-miterlimit:4;stroke-dashoffset:0;stroke-opacity:1;display:inline;font-family:Arial"
       d="M 96.019356,112.75558 L 97.557442,112.9841 C 97.621892,113.45871 97.800603,113.80441 98.093575,114.02121 C 98.486149,114.31418 99.022282,114.46066 99.701973,114.46066 C 100.43439,114.46066 100.99982,114.31418 101.39826,114.02121 C 101.79669,113.72824 102.06622,113.31808 102.20686,112.79074 C 102.28888,112.46847 102.32697,111.79172 102.32111,110.76047 C 101.6297,111.57492 100.76837,111.98215 99.737129,111.98215 C 98.453923,111.98215 97.46076,111.51926 96.757637,110.59348 C 96.054511,109.6677 95.702949,108.55735 95.70295,107.26242 C 95.702949,106.3718 95.864082,105.55149 96.186348,104.80148 C 96.508612,104.04563 96.974432,103.46262 97.583809,103.05246 C 98.19904,102.64231 98.919743,102.43723 99.745918,102.43723 C 100.84748,102.43723 101.75568,102.88255 102.47053,103.77316 L 102.47053,102.64816 L 103.92951,102.64816 L 103.92951,110.71652 C 103.9295,112.16965 103.78009,113.19797 103.48127,113.80148 C 103.18829,114.41086 102.71954,114.89132 102.07502,115.24289 C 101.43634,115.59445 100.64826,115.77023 99.710762,115.77023 C 98.597477,115.77023 97.698064,115.51828 97.01252,115.01437 C 96.326972,114.51632 95.995917,113.7634 96.019356,112.75558 M 97.328926,107.14816 C 97.328924,108.37278 97.572088,109.26633 98.058418,109.82883 C 98.544743,110.39133 99.154117,110.67258 99.886543,110.67258 C 100.6131,110.67258 101.22247,110.39426 101.71467,109.83762 C 102.20685,109.27512 102.45294,108.39621 102.45295,107.2009 C 102.45294,106.05833 102.19806,105.197 101.6883,104.61691 C 101.18439,104.03684 100.57501,103.7468 99.860176,103.7468 C 99.157047,103.7468 98.559391,104.03391 98.067207,104.60812 C 97.575017,105.17649 97.328924,106.02317 97.328926,107.14816"
       id="text3818" />
    <path
       style="font-size:18px;font-style:normal;font-variant:normal;font-weight:normal;font-stretch:normal;text-align:start;line-height:100%;writing-mode:lr-tb;text-anchor:start;fill:#000000;fill-opacity:1;fill-rule:nonzero;stroke:none;stroke-width:2;stroke-linecap:square;stroke-linejoin:miter;stroke-miterlimit:4;stroke-dashoffset:0;stroke-opacity:1;display:inline;font-family:Arial"
       d="M 193.42896,166.89355 L 194.98462,167.0957 C 194.81469,168.16797 194.37817,169.00879 193.67505,169.61816 C 192.97778,170.22168 192.11938,170.52344 191.09985,170.52344 C 189.82251,170.52344 188.79419,170.10742 188.01489,169.27539 C 187.24145,168.4375 186.85474,167.23926 186.85474,165.68066 C 186.85474,164.67286 187.02173,163.79102 187.35571,163.03516 C 187.6897,162.2793 188.19653,161.71388 188.87622,161.33887 C 189.56176,160.95802 190.3059,160.76759 191.10864,160.76758 C 192.12231,160.76759 192.95141,161.0254 193.59595,161.54102 C 194.24047,162.05079 194.65356,162.77735 194.83521,163.7207 L 193.29712,163.95801 C 193.15063,163.33106 192.88989,162.85938 192.51489,162.54297 C 192.14575,162.22657 191.6975,162.06837 191.17017,162.06836 C 190.37329,162.06837 189.72583,162.35548 189.22778,162.92969 C 188.72973,163.49805 188.48071,164.4004 188.48071,165.63672 C 188.48071,166.89063 188.72094,167.80176 189.20142,168.37012 C 189.68188,168.93848 190.30883,169.22266 191.08228,169.22266 C 191.70336,169.22266 192.22192,169.03223 192.63794,168.65137 C 193.05395,168.27051 193.31762,167.68457 193.42896,166.89355"
       id="text3836" />
    <path
       style="font-size:28px;font-style:normal;font-variant:normal;font-weight:normal;font-stretch:normal;text-align:start;line-height:100%;writing-mode:lr-tb;text-anchor:start;fill:#000000;fill-opacity:1;fill-rule:nonzero;stroke:none;stroke-width:2;stroke-linecap:square;stroke-linejoin:miter;stroke-miterlimit:4;stroke-dashoffset:0;stroke-opacity:1;display:inline;font-family:NWCV15"
       d="M 200.29321,165.14111 L 200.29321,162.11963 L 198.74829,162.46143 L 198.74829,165.48291 L 200.29321,165.14111 M 202.08423,164.73096 L 202.08423,166.93213 L 200.99048,167.19189 L 200.99048,171.14307 L 200.29321,171.14307 L 200.29321,167.32861 L 198.74829,167.69775 L 198.74829,171.63525 L 198.07837,171.63525 L 198.07837,167.86182 L 196.98462,168.10791 L 196.98462,165.93408 C 197.71379,165.93408 198.07837,165.83838 198.07837,165.64697 L 198.07837,162.62549 L 196.98462,162.89893 L 196.98462,160.77979 L 198.07837,160.49268 L 198.10571,156.45947 L 198.74829,156.45947 L 198.74829,160.32861 L 200.29321,159.98682 L 200.29321,155.87158 L 200.99048,155.87158 L 200.99048,159.82275 L 202.08423,159.57666 L 202.08423,161.6958 L 200.99048,161.95557 L 200.99048,164.97705 L 202.08423,164.73096"
       id="text3848" />
    <path
       style="font-size:48px;font-style:normal;font-variant:normal;font-weight:normal;font-stretch:normal;text-align:start;line-height:100%;writing-mode:lr-tb;text-anchor:start;fill:#000000;fill-opacity:1;fill-rule:nonzero;stroke:none;stroke-width:2;stroke-linecap:square;stroke-linejoin:miter;stroke-miterlimit:4;stroke-dashoffset:0;stroke-opacity:1;display:inline;font-family:NWCV15"
       d="M 33.62397,140.41295 L 33.62397,146.97545 L 34.772408,145.63951 C 35.22553,145.09263 35.647404,144.54576 36.038033,143.99889 C 36.225529,143.71763 36.397404,143.45201 36.553658,143.20201 C 36.678653,142.96764 36.827091,142.6942 36.99897,142.3817 C 37.123965,142.11607 37.248965,141.82701 37.37397,141.51451 C 37.467715,141.32701 37.51459,141.1317 37.514595,140.92857 C 37.51459,140.61608 37.467715,140.30358 37.37397,139.99107 C 37.280215,139.66295 37.163028,139.41295 37.022408,139.24107 C 36.897403,139.05358 36.725528,138.91295 36.506783,138.8192 C 36.288029,138.7567 36.045841,138.70983 35.78022,138.67857 C 35.311467,138.67858 34.834905,138.89733 34.350533,139.33482 C 33.866156,139.7567 33.623969,140.11608 33.62397,140.41295 M 32.428658,149.57701 L 32.428658,123.28014 L 33.62397,123.28014 L 33.62397,138.6317 C 34.873968,137.64733 36.045841,137.15514 37.139595,137.15514 C 37.63959,137.15514 38.116152,137.29577 38.569283,137.57701 C 39.053651,137.88952 39.452088,138.30358 39.764595,138.8192 C 40.061462,139.36608 40.2099,139.91295 40.209908,140.45982 C 40.2099,141.33482 39.827088,142.21764 39.06147,143.10826 C 38.655214,143.59264 38.178652,144.13951 37.631783,144.74889 C 37.084903,145.35826 36.600528,145.85045 36.178658,146.22545 L 32.428658,149.57701"
       id="text3844" />
    <path
       style="font-size:28px;font-style:normal;font-variant:normal;font-weight:normal;font-stretch:normal;text-align:start;line-height:100%;writing-mode:lr-tb;text-anchor:start;fill:#000000;fill-opacity:1;fill-rule:nonzero;stroke:none;stroke-width:2;stroke-linecap:square;stroke-linejoin:miter;stroke-miterlimit:4;stroke-dashoffset:0;stroke-opacity:1;display:inline;font-family:Arial"
       d="M 14.457954,146.80721 L 14.457954,126.76424 L 28.950142,126.76424 L 28.950142,129.12947 L 17.110298,129.12947 L 17.110298,135.26814 L 28.198189,135.26814 L 28.198189,137.61971 L 17.110298,137.61971 L 17.110298,144.44197 L 29.414986,144.44197 L 29.414986,146.80721 L 14.457954,146.80721"
       id="text3866" />
    <path
       style="font-size:48px;font-style:normal;font-variant:normal;font-weight:normal;font-stretch:normal;text-align:start;line-height:100%;writing-mode:lr-tb;text-anchor:start;fill:#000000;fill-opacity:1;fill-rule:nonzero;stroke:none;stroke-width:2;stroke-linecap:square;stroke-linejoin:miter;stroke-miterlimit:4;stroke-dashoffset:0;stroke-opacity:1;display:inline;font-family:NWCV15"
       d="M 49.760406,80.508492 L 49.760406,87.070992 L 50.908844,85.735054 C 51.361966,85.188176 51.783841,84.641302 52.174469,84.094429 C 52.361965,83.813178 52.53384,83.547553 52.690094,83.297554 C 52.81509,83.063179 52.963527,82.789741 53.135406,82.477242 C 53.260402,82.211617 53.385402,81.922555 53.510406,81.610054 C 53.604151,81.422555 53.651026,81.227243 53.651031,81.024117 C 53.651026,80.711618 53.604151,80.399119 53.510406,80.086617 C 53.416652,79.758494 53.299464,79.508495 53.158844,79.336617 C 53.03384,79.14912 52.861965,79.008495 52.643219,78.914742 C 52.424465,78.852245 52.182278,78.80537 51.916656,78.774117 C 51.447904,78.77412 50.971342,78.99287 50.486969,79.430367 C 50.002593,79.852244 49.760405,80.211619 49.760406,80.508492 M 48.565094,89.672554 L 48.565094,63.375679 L 49.760406,63.375679 L 49.760406,78.727242 C 51.010404,77.742871 52.182278,77.250684 53.276031,77.250679 C 53.776026,77.250684 54.252588,77.391309 54.705719,77.672554 C 55.190087,77.985059 55.588524,78.399121 55.901031,78.914742 C 56.197899,79.46162 56.346336,80.008494 56.346344,80.555367 C 56.346336,81.430368 55.963524,82.313179 55.197906,83.203804 C 54.79165,83.688178 54.315088,84.235052 53.768219,84.844429 C 53.221339,85.453801 52.736965,85.945988 52.315094,86.320992 L 48.565094,89.672554"
       id="text3880" />
    <path
       style="font-size:28px;font-style:normal;font-variant:normal;font-weight:normal;font-stretch:normal;text-align:start;line-height:100%;writing-mode:lr-tb;text-anchor:start;fill:#000000;fill-opacity:1;fill-rule:nonzero;stroke:none;stroke-width:2;stroke-linecap:square;stroke-linejoin:miter;stroke-miterlimit:4;stroke-dashoffset:0;stroke-opacity:1;display:inline;font-family:Arial"
       d="M 30.430328,86.90274 L 30.430328,66.859772 L 37.94986,66.859772 C 39.481099,66.859792 40.707009,67.06487 41.627594,67.475006 C 42.557267,67.876067 43.281876,68.500415 43.801422,69.348053 C 44.330052,70.186611 44.594375,71.066168 44.594391,71.986725 C 44.594375,72.84351 44.361953,73.65015 43.897125,74.406647 C 43.432266,75.163169 42.730444,75.773845 41.791656,76.238678 C 43.003881,76.594157 43.933568,77.200276 44.580719,78.057037 C 45.236952,78.913816 45.565077,79.925534 45.565094,81.092194 C 45.565077,82.031001 45.364556,82.906 44.963531,83.717194 C 44.571588,84.519279 44.083958,85.13907 43.500641,85.576569 C 42.917293,86.014069 42.18357,86.346751 41.299469,86.574615 C 40.424457,86.793366 39.348937,86.90274 38.072906,86.90274 L 30.430328,86.90274 M 33.082672,75.281647 L 37.416656,75.281647 C 38.592428,75.281658 39.435526,75.204184 39.945953,75.049225 C 40.62042,74.848716 41.126279,74.516034 41.463531,74.051178 C 41.809872,73.586348 41.983049,73.003015 41.983063,72.301178 C 41.983049,71.635829 41.823544,71.052496 41.504547,70.551178 C 41.185524,70.040778 40.729795,69.694424 40.13736,69.512115 C 39.544901,69.320727 38.528626,69.225024 37.088531,69.225006 L 33.082672,69.225006 L 33.082672,75.281647 M 33.082672,84.537506 L 38.072906,84.537506 C 38.929667,84.537508 39.531229,84.505607 39.877594,84.441803 C 40.488259,84.332431 40.998675,84.150139 41.408844,83.894928 C 41.818987,83.639723 42.156226,83.270583 42.420563,82.787506 C 42.684871,82.295323 42.817033,81.73022 42.817047,81.092194 C 42.817033,80.344804 42.625627,79.69767 42.242828,79.150787 C 41.860002,78.594806 41.3268,78.207437 40.643219,77.988678 C 39.968728,77.760823 38.993469,77.64689 37.717438,77.646881 L 33.082672,77.646881 L 33.082672,84.537506"
       id="text3884" />
    <path
       style="font-size:48px;font-style:normal;font-variant:normal;font-weight:normal;font-stretch:normal;text-align:start;line-height:100%;writing-mode:lr-tb;text-anchor:start;fill:#000000;fill-opacity:1;fill-rule:nonzero;stroke:none;stroke-width:2;stroke-linecap:square;stroke-linejoin:miter;stroke-miterlimit:4;stroke-dashoffset:0;stroke-opacity:1;display:inline;font-family:NWCV15"
       d="M 51.571934,200.31741 L 51.571934,206.87991 L 52.720371,205.54398 C 53.173493,204.9971 53.595368,204.45022 53.985996,203.90335 C 54.173492,203.6221 54.345367,203.35647 54.501621,203.10648 C 54.626617,202.8721 54.775054,202.59866 54.946934,202.28616 C 55.071929,202.02054 55.196929,201.73148 55.321934,201.41898 C 55.415679,201.23148 55.462554,201.03616 55.462559,200.83304 C 55.462554,200.52054 55.415679,200.20804 55.321934,199.89554 C 55.228179,199.56742 55.110992,199.31742 54.970371,199.14554 C 54.845367,198.95804 54.673492,198.81742 54.454746,198.72366 C 54.235992,198.66117 53.993805,198.61429 53.728184,198.58304 C 53.259431,198.58304 52.782869,198.80179 52.298496,199.23929 C 51.81412,199.66117 51.571933,200.02054 51.571934,200.31741 M 50.376621,209.48148 L 50.376621,183.1846 L 51.571934,183.1846 L 51.571934,198.53616 C 52.821931,197.55179 53.993805,197.05961 55.087559,197.0596 C 55.587554,197.05961 56.064116,197.20023 56.517246,197.48148 C 57.001615,197.79398 57.400052,198.20804 57.712559,198.72366 C 58.009426,199.27054 58.157863,199.81742 58.157871,200.36429 C 58.157863,201.23929 57.775051,202.1221 57.009434,203.01273 C 56.603178,203.4971 56.126615,204.04397 55.579746,204.65335 C 55.032867,205.26272 54.548492,205.75491 54.126621,206.12991 L 50.376621,209.48148"
       id="text3896" />
    <path
       style="font-size:28px;font-style:normal;font-variant:normal;font-weight:normal;font-stretch:normal;text-align:start;line-height:100%;writing-mode:lr-tb;text-anchor:start;fill:#000000;fill-opacity:1;fill-rule:nonzero;stroke:none;stroke-width:2;stroke-linecap:square;stroke-linejoin:miter;stroke-miterlimit:4;stroke-dashoffset:0;stroke-opacity:1;display:inline;font-family:Arial"
       d="M 28.618801,206.71167 L 36.316067,186.6687 L 39.173489,186.6687 L 47.376614,206.71167 L 44.355129,206.71167 L 42.017239,200.64136 L 33.636379,200.64136 L 31.435207,206.71167 L 28.618801,206.71167 M 34.402004,198.4812 L 41.196926,198.4812 L 39.105129,192.93042 C 38.467099,191.24424 37.993141,189.85882 37.683254,188.77417 C 37.428037,190.05934 37.068011,191.33538 36.603176,192.60229 L 34.402004,198.4812"
       id="text3900" />
    <path
       style="font-size:48px;font-style:normal;font-variant:normal;font-weight:normal;font-stretch:normal;text-align:start;line-height:100%;writing-mode:lr-tb;text-anchor:start;fill:#000000;fill-opacity:1;fill-rule:nonzero;stroke:none;stroke-width:2;stroke-linecap:square;stroke-linejoin:miter;stroke-miterlimit:4;stroke-dashoffset:0;stroke-opacity:1;display:inline;font-family:NWCV15"
       d="M 94.328247,244.16748 L 94.328247,250.72998 L 95.476685,249.39404 C 95.929807,248.84717 96.351681,248.30029 96.74231,247.75342 C 96.929806,247.47217 97.101681,247.20654 97.257935,246.95654 C 97.38293,246.72217 97.531368,246.44873 97.703247,246.13623 C 97.828242,245.87061 97.953242,245.58154 98.078247,245.26904 C 98.171992,245.08154 98.218867,244.88623 98.218872,244.68311 C 98.218867,244.37061 98.171992,244.05811 98.078247,243.74561 C 97.984492,243.41748 97.867305,243.16748 97.726685,242.99561 C 97.60168,242.80811 97.429805,242.66748 97.21106,242.57373 C 96.992306,242.51123 96.750118,242.46436 96.484497,242.43311 C 96.015744,242.43311 95.539182,242.65186 95.05481,243.08936 C 94.570433,243.51123 94.328246,243.87061 94.328247,244.16748 M 93.132935,253.33154 L 93.132935,227.03467 L 94.328247,227.03467 L 94.328247,242.38623 C 95.578245,241.40186 96.750118,240.90967 97.843872,240.90967 C 98.343867,240.90967 98.820429,241.0503 99.27356,241.33154 C 99.757928,241.64405 100.15637,242.05811 100.46887,242.57373 C 100.76574,243.12061 100.91418,243.66748 100.91418,244.21436 C 100.91418,245.08936 100.53136,245.97217 99.765747,246.86279 C 99.359491,247.34717 98.882929,247.89404 98.33606,248.50342 C 97.78918,249.11279 97.304805,249.60498 96.882935,249.97998 L 93.132935,253.33154"
       id="text3906" />
    <path
       style="font-size:28px;font-style:normal;font-variant:normal;font-weight:normal;font-stretch:normal;text-align:start;line-height:100%;writing-mode:lr-tb;text-anchor:start;fill:#000000;fill-opacity:1;fill-rule:nonzero;stroke:none;stroke-width:2;stroke-linecap:square;stroke-linejoin:miter;stroke-miterlimit:4;stroke-dashoffset:0;stroke-opacity:1;display:inline;font-family:Arial"
       d="M 73.562614,250.56174 L 73.562614,230.51877 L 80.466911,230.51877 C 82.025494,230.51879 83.214946,230.61449 84.035271,230.80588 C 85.183694,231.07022 86.163511,231.54874 86.974724,232.24142 C 88.031999,233.13467 88.82041,234.27855 89.339958,235.67307 C 89.868586,237.0585 90.132908,238.64443 90.132927,240.43088 C 90.132908,241.95302 89.955174,243.30198 89.599724,244.47775 C 89.244237,245.65354 88.788509,246.6288 88.232536,247.40353 C 87.67653,248.16916 87.065854,248.77528 86.400505,249.22189 C 85.744241,249.65939 84.946715,249.99208 84.007927,250.21994 C 83.078228,250.4478 82.007265,250.56174 80.795036,250.56174 L 73.562614,250.56174 M 76.214958,248.1965 L 80.494255,248.1965 C 81.815859,248.19651 82.850363,248.07346 83.597771,247.82736 C 84.354268,247.58127 84.95583,247.23492 85.402458,246.7883 C 86.03135,246.1594 86.51898,245.3163 86.865349,244.259 C 87.220802,243.1926 87.398536,241.90289 87.398552,240.38986 C 87.398536,238.29352 87.052182,236.6848 86.359489,235.56369 C 85.675881,234.4335 84.841898,233.67699 83.857536,233.29416 C 83.146587,233.02074 82.002708,232.88402 80.425896,232.884 L 76.214958,232.884 L 76.214958,248.1965"
       id="text3910" />
    <path
       style="font-size:48px;font-style:normal;font-variant:normal;font-weight:normal;font-stretch:normal;text-align:start;line-height:100%;writing-mode:lr-tb;text-anchor:start;fill:#000000;fill-opacity:1;fill-rule:nonzero;stroke:none;stroke-width:2;stroke-linecap:square;stroke-linejoin:miter;stroke-miterlimit:4;stroke-dashoffset:0;stroke-opacity:1;display:inline;font-family:NWCV15"
       d="M 150.00836,288.84152 L 150.00836,295.40402 L 151.1568,294.06808 C 151.60992,293.52121 152.0318,292.97433 152.42242,292.42746 C 152.60992,292.14621 152.7818,291.88058 152.93805,291.63058 C 153.06305,291.39621 153.21148,291.12277 153.38336,290.81027 C 153.50836,290.54465 153.63336,290.25559 153.75836,289.94308 C 153.85211,289.75559 153.89898,289.56027 153.89899,289.35715 C 153.89898,289.04465 153.85211,288.73215 153.75836,288.41965 C 153.66461,288.09153 153.54742,287.84153 153.4068,287.66965 C 153.28179,287.48215 153.10992,287.34153 152.89117,287.24777 C 152.67242,287.18528 152.43023,287.1384 152.16461,287.10715 C 151.69586,287.10715 151.2193,287.3259 150.73492,287.7634 C 150.25055,288.18528 150.00836,288.54465 150.00836,288.84152 M 148.81305,298.00558 L 148.81305,271.70871 L 150.00836,271.70871 L 150.00836,287.06027 C 151.25836,286.0759 152.43023,285.58372 153.52399,285.58371 C 154.02398,285.58372 154.50054,285.72434 154.95367,286.00558 C 155.43804,286.31809 155.83648,286.73215 156.14899,287.24777 C 156.44585,287.79465 156.59429,288.34152 156.5943,288.8884 C 156.59429,289.7634 156.21148,290.64621 155.44586,291.53683 C 155.03961,292.02121 154.56304,292.56808 154.01617,293.17746 C 153.46929,293.78683 152.98492,294.27902 152.56305,294.65402 L 148.81305,298.00558"
       id="text3916" />
    <path
       style="font-size:28px;font-style:normal;font-variant:normal;font-weight:normal;font-stretch:normal;text-align:start;line-height:100%;writing-mode:lr-tb;text-anchor:start;fill:#000000;fill-opacity:1;fill-rule:nonzero;stroke:none;stroke-width:2;stroke-linecap:square;stroke-linejoin:miter;stroke-miterlimit:4;stroke-dashoffset:0;stroke-opacity:1;display:inline;font-family:Arial"
       d="M 137.32281,287.37445 L 137.32281,285.02289 L 145.81305,285.00922 L 145.81305,292.44672 C 144.50965,293.48578 143.16525,294.26963 141.77985,294.79828 C 140.39441,295.31781 138.97254,295.57758 137.51422,295.57758 C 135.54546,295.57758 133.75445,295.1583 132.14117,294.31976 C 130.537,293.47211 129.32476,292.25076 128.50446,290.6557 C 127.68414,289.06065 127.27399,287.27876 127.27399,285.31 C 127.27399,283.35949 127.67958,281.54113 128.49078,279.85492 C 129.31109,278.15962 130.48687,276.90181 132.01813,276.08148 C 133.54937,275.26119 135.31304,274.85103 137.30914,274.85101 C 138.75835,274.85103 140.06629,275.08801 141.23297,275.56195 C 142.40874,276.02681 143.32931,276.67851 143.99469,277.51703 C 144.66004,278.35559 145.16589,279.44934 145.51227,280.79828 L 143.11969,281.45453 C 142.81889,280.43371 142.44519,279.63163 141.9986,279.04828 C 141.55197,278.46496 140.91395,278.00012 140.08453,277.65375 C 139.25509,277.2983 138.33452,277.12056 137.32281,277.12054 C 136.11057,277.12056 135.06239,277.30741 134.17828,277.68109 C 133.29416,278.04569 132.57867,278.52876 132.0318,279.13031 C 131.49403,279.73189 131.07476,280.39269 130.77399,281.11273 C 130.26357,282.35233 130.00836,283.69673 130.00836,285.14594 C 130.00836,286.9324 130.3137,288.42719 130.92438,289.63031 C 131.54416,290.83344 132.44195,291.72667 133.61774,292.31 C 134.79351,292.89333 136.04221,293.185 137.36383,293.185 C 138.51226,293.185 139.63335,292.96625 140.72711,292.52875 C 141.82085,292.08214 142.65027,291.60818 143.21539,291.10687 L 143.21539,287.37445 L 137.32281,287.37445"
       id="text3920" />
    <path
       style="font-size:28px;font-style:normal;font-variant:normal;font-weight:normal;font-stretch:normal;text-align:start;line-height:100%;writing-mode:lr-tb;text-anchor:start;fill:#000000;fill-opacity:1;fill-rule:nonzero;stroke:none;stroke-width:2;stroke-linecap:square;stroke-linejoin:miter;stroke-miterlimit:4;stroke-dashoffset:0;stroke-opacity:1;display:inline;font-family:Arial"
       d="M 123.27204,297.99582 C 121.91396,296.28227 120.76553,294.27707 119.82673,291.98019 C 118.88792,289.68332 118.41852,287.30442 118.41853,284.84348 C 118.41852,282.67421 118.76944,280.59609 119.47126,278.6091 C 120.29157,276.30313 121.55849,274.00625 123.27204,271.71848 L 125.03571,271.71848 C 123.93284,273.61433 123.20368,274.96784 122.84821,275.77902 C 122.29222,277.03685 121.85472,278.34935 121.53571,279.71652 C 121.14378,281.42096 120.94782,283.1345 120.94782,284.85715 C 120.94782,289.24126 122.31045,293.62082 125.03571,297.99582 L 123.27204,297.99582 M 160.59626,297.99582 L 158.83259,297.99582 C 161.55784,293.62082 162.92047,289.24126 162.92048,284.85715 C 162.92047,283.14361 162.72451,281.44375 162.33259,279.75754 C 162.02269,278.39036 161.58975,277.07787 161.03376,275.82004 C 160.67829,274.99974 159.94456,273.63256 158.83259,271.71848 L 160.59626,271.71848 C 162.3098,274.00625 163.57672,276.30313 164.39704,278.6091 C 165.09886,280.59609 165.44977,282.67421 165.44978,284.84348 C 165.44977,287.30442 164.97581,289.68332 164.0279,291.98019 C 163.08909,294.27707 161.94521,296.28227 160.59626,297.99582"
       id="text3788" />
    <path
       style="font-size:48px;font-style:normal;font-variant:normal;font-weight:normal;font-stretch:normal;text-align:start;line-height:100%;writing-mode:lr-tb;text-anchor:start;fill:#000000;fill-opacity:1;fill-rule:nonzero;stroke:none;stroke-width:2;stroke-linecap:square;stroke-linejoin:miter;stroke-miterlimit:4;stroke-dashoffset:0;stroke-opacity:1;display:inline;font-family:NWCV15"
       d="M 156.70438,258.61639 L 156.70438,253.43671 L 154.05594,254.02264 L 154.05594,259.20233 L 156.70438,258.61639 M 159.77469,257.91327 L 159.77469,261.68671 L 157.89969,262.13202 L 157.89969,268.90546 L 156.70438,268.90546 L 156.70438,262.36639 L 154.05594,262.99921 L 154.05594,269.74921 L 152.9075,269.74921 L 152.9075,263.28046 L 151.0325,263.70233 L 151.0325,259.97577 C 152.2825,259.97577 152.9075,259.8117 152.9075,259.48358 L 152.9075,254.30389 L 151.0325,254.77264 L 151.0325,251.13983 L 152.9075,250.64764 L 152.95438,243.73358 L 154.05594,243.73358 L 154.05594,250.36639 L 156.70438,249.78046 L 156.70438,242.72577 L 157.89969,242.72577 L 157.89969,249.49921 L 159.77469,249.07733 L 159.77469,252.71014 L 157.89969,253.15546 L 157.89969,258.33514 L 159.77469,257.91327"
       id="text3987" />
    <path
       style="font-size:28px;font-style:normal;font-variant:normal;font-weight:normal;font-stretch:normal;text-align:start;line-height:100%;writing-mode:lr-tb;text-anchor:start;fill:#000000;fill-opacity:1;fill-rule:nonzero;stroke:none;stroke-width:2;stroke-linecap:square;stroke-linejoin:miter;stroke-miterlimit:4;stroke-dashoffset:0;stroke-opacity:1;display:inline;font-family:Arial"
       d="M 134.51102,266.25897 L 134.51102,246.216 L 148.0325,246.216 L 148.0325,248.58124 L 137.16336,248.58124 L 137.16336,254.78827 L 146.56961,254.78827 L 146.56961,257.1535 L 137.16336,257.1535 L 137.16336,266.25897 L 134.51102,266.25897"
       id="text3991" />
    <path
       style="font-size:48px;font-style:normal;font-variant:normal;font-weight:normal;font-stretch:normal;text-align:start;line-height:100%;writing-mode:lr-tb;text-anchor:start;fill:#000000;fill-opacity:1;fill-rule:nonzero;stroke:none;stroke-width:2;stroke-linecap:square;stroke-linejoin:miter;stroke-miterlimit:4;stroke-dashoffset:0;stroke-opacity:1;display:inline;font-family:NWCV15"
       d="M 82.016014,272.3374 L 82.016014,267.15771 L 79.367577,267.74365 L 79.367577,272.92334 L 82.016014,272.3374 M 85.086327,271.63428 L 85.086327,275.40771 L 83.211327,275.85303 L 83.211327,282.62646 L 82.016014,282.62646 L 82.016014,276.0874 L 79.367577,276.72021 L 79.367577,283.47021 L 78.219139,283.47021 L 78.219139,277.00146 L 76.344139,277.42334 L 76.344139,273.69678 C 77.594138,273.69677 78.219137,273.53271 78.219139,273.20459 L 78.219139,268.0249 L 76.344139,268.49365 L 76.344139,264.86084 L 78.219139,264.36865 L 78.266014,257.45459 L 79.367577,257.45459 L 79.367577,264.0874 L 82.016014,263.50146 L 82.016014,256.44678 L 83.211327,256.44678 L 83.211327,263.22021 L 85.086327,262.79834 L 85.086327,266.43115 L 83.211327,266.87646 L 83.211327,272.05615 L 85.086327,271.63428"
       id="text4003" />
    <path
       style="font-size:28px;font-style:normal;font-variant:normal;font-weight:normal;font-stretch:normal;text-align:start;line-height:100%;writing-mode:lr-tb;text-anchor:start;fill:#000000;fill-opacity:1;fill-rule:nonzero;stroke:none;stroke-width:2;stroke-linecap:square;stroke-linejoin:miter;stroke-miterlimit:4;stroke-dashoffset:0;stroke-opacity:1;display:inline;font-family:Arial"
       d="M 70.691799,272.95264 L 73.344143,273.62256 C 72.788135,275.80095 71.785532,277.46436 70.33633,278.61279 C 68.896212,279.75212 67.132541,280.32178 65.045315,280.32178 C 62.88515,280.32178 61.126037,279.88428 59.767971,279.00928 C 58.419009,278.12516 57.389062,276.84912 56.678127,275.18115 C 55.976303,273.51319 55.625392,271.72218 55.625393,269.80811 C 55.625392,267.72088 56.021875,265.90252 56.814846,264.35303 C 57.616926,262.79445 58.75169,261.61411 60.219143,260.81201 C 61.695698,260.00083 63.318092,259.59524 65.08633,259.59521 C 67.091526,259.59524 68.777722,260.10565 70.144924,261.12646 C 71.512094,262.14732 72.464567,263.58286 73.002346,265.43311 L 70.391018,266.04834 C 69.926158,264.59002 69.25168,263.52817 68.36758,262.86279 C 67.483453,262.19745 66.371475,261.86476 65.031643,261.86475 C 63.491269,261.86476 62.201557,262.2339 61.162502,262.97217 C 60.132548,263.71047 59.40794,264.70395 58.988674,265.95264 C 58.569399,267.19223 58.359764,268.47283 58.359768,269.79443 C 58.359764,271.49887 58.605857,272.9891 59.098049,274.26514 C 59.599346,275.53207 60.374085,276.47998 61.422268,277.10889 C 62.470437,277.7378 63.605201,278.05225 64.826565,278.05225 C 66.31223,278.05225 67.570041,277.62386 68.600002,276.76709 C 69.629935,275.91032 70.3272,274.63884 70.691799,272.95264"
       id="text4007" />
    <path
       style="font-size:18px;font-style:normal;font-variant:normal;font-weight:normal;font-stretch:normal;text-align:start;line-height:100%;writing-mode:lr-tb;text-anchor:start;fill:#000000;fill-opacity:1;fill-rule:nonzero;stroke:none;stroke-width:2;stroke-linecap:square;stroke-linejoin:miter;stroke-miterlimit:4;stroke-dashoffset:0;stroke-opacity:1;display:inline;font-family:Arial"
       d="M 196.91118,142.98766 L 196.91118,134.88414 L 195.51372,134.88414 L 195.51372,133.65367 L 196.91118,133.65367 L 196.91118,132.66051 C 196.91118,132.03357 196.96684,131.56775 197.07817,131.26305 C 197.23051,130.8529 197.49711,130.52185 197.87798,130.26988 C 198.26469,130.01208 198.80375,129.88318 199.49516,129.88316 C 199.94047,129.88318 200.43266,129.93591 200.97173,130.04137 L 200.73442,131.42125 C 200.40629,131.36267 200.09574,131.33337 199.80278,131.33336 C 199.32231,131.33337 198.98246,131.43591 198.78325,131.64098 C 198.58403,131.84607 198.48442,132.22985 198.48442,132.79234 L 198.48442,133.65367 L 200.30376,133.65367 L 200.30376,134.88414 L 198.48442,134.88414 L 198.48442,142.98766 L 196.91118,142.98766"
       id="text4051" />
    <path
       style="font-size:28px;font-style:normal;font-variant:normal;font-weight:normal;font-stretch:normal;text-align:start;line-height:100%;writing-mode:lr-tb;text-anchor:start;fill:#000000;fill-opacity:1;fill-rule:nonzero;stroke:none;stroke-width:2;stroke-linecap:square;stroke-linejoin:miter;stroke-miterlimit:4;stroke-dashoffset:0;stroke-opacity:1;display:inline;font-family:NWCV15"
       d="M 206.28032,137.81627 L 206.28032,134.79478 L 204.7354,135.13658 L 204.7354,138.15807 L 206.28032,137.81627 M 208.07133,137.40611 L 208.07133,139.60728 L 206.97758,139.86705 L 206.97758,143.81822 L 206.28032,143.81822 L 206.28032,140.00377 L 204.7354,140.37291 L 204.7354,144.31041 L 204.06548,144.31041 L 204.06548,140.53697 L 202.97173,140.78307 L 202.97173,138.60924 C 203.70089,138.60924 204.06547,138.51353 204.06548,138.32213 L 204.06548,135.30064 L 202.97173,135.57408 L 202.97173,133.45494 L 204.06548,133.16783 L 204.09282,129.13463 L 204.7354,129.13463 L 204.7354,133.00377 L 206.28032,132.66197 L 206.28032,128.54674 L 206.97758,128.54674 L 206.97758,132.49791 L 208.07133,132.25182 L 208.07133,134.37096 L 206.97758,134.63072 L 206.97758,137.65221 L 208.07133,137.40611"
       id="text4055" />
    <path
       style="font-size:18px;font-style:normal;font-variant:normal;font-weight:normal;font-stretch:normal;text-align:start;line-height:100%;writing-mode:lr-tb;text-anchor:start;fill:#000000;fill-opacity:1;fill-rule:nonzero;stroke:none;stroke-width:2;stroke-linecap:square;stroke-linejoin:miter;stroke-miterlimit:4;stroke-dashoffset:0;stroke-opacity:1;display:inline;font-family:Arial"
       d="M 167.12102,189.85506 L 168.6591,190.08357 C 168.72355,190.55818 168.90226,190.90388 169.19524,191.12068 C 169.58781,191.41365 170.12394,191.56013 170.80363,191.56013 C 171.53605,191.56013 172.10148,191.41365 172.49992,191.12068 C 172.89835,190.82771 173.16789,190.41756 173.30852,189.89021 C 173.39054,189.56795 173.42863,188.89119 173.42278,187.85994 C 172.73136,188.67439 171.87004,189.08162 170.83879,189.08162 C 169.55558,189.08162 168.56242,188.61873 167.8593,187.69295 C 167.15617,186.76717 166.80461,185.65682 166.80461,184.36189 C 166.80461,183.47127 166.96574,182.65096 167.28801,181.90096 C 167.61027,181.1451 168.07609,180.5621 168.68547,180.15193 C 169.3007,179.74178 170.0214,179.53671 170.84758,179.5367 C 171.94914,179.53671 172.85734,179.98202 173.57219,180.87263 L 173.57219,179.74763 L 175.03117,179.74763 L 175.03117,187.81599 C 175.03116,189.26912 174.88175,190.29744 174.58293,190.90096 C 174.28995,191.51033 173.82121,191.9908 173.17668,192.34236 C 172.538,192.69392 171.74992,192.8697 170.81242,192.86971 C 169.69914,192.8697 168.79973,192.61775 168.11418,192.11385 C 167.42863,191.6158 167.09758,190.86287 167.12102,189.85506 M 168.43059,184.24763 C 168.43059,185.47225 168.67375,186.3658 169.16008,186.9283 C 169.6464,187.4908 170.25578,187.77205 170.9882,187.77205 C 171.71476,187.77205 172.32414,187.49373 172.81633,186.93709 C 173.30851,186.37459 173.5546,185.49569 173.55461,184.30037 C 173.5546,183.1578 173.29972,182.29647 172.78996,181.71638 C 172.28605,181.13631 171.67668,180.84628 170.96184,180.84627 C 170.25871,180.84628 169.66105,181.13339 169.16887,181.7076 C 168.67668,182.27596 168.43059,183.12264 168.43059,184.24763"
       id="text4075" />
    <path
       style="font-size:28px;font-style:normal;font-variant:normal;font-weight:normal;font-stretch:normal;text-align:start;line-height:100%;writing-mode:lr-tb;text-anchor:start;fill:#000000;fill-opacity:1;fill-rule:nonzero;stroke:none;stroke-width:2;stroke-linecap:square;stroke-linejoin:miter;stroke-miterlimit:4;stroke-dashoffset:0;stroke-opacity:1;display:inline;font-family:NWCV15"
       d="M 180.33975,183.91023 L 180.33975,180.88875 L 178.79483,181.23055 L 178.79483,184.25203 L 180.33975,183.91023 M 182.13077,183.50008 L 182.13077,185.70125 L 181.03702,185.96101 L 181.03702,189.91219 L 180.33975,189.91219 L 180.33975,186.09773 L 178.79483,186.46687 L 178.79483,190.40437 L 178.12491,190.40437 L 178.12491,186.63094 L 177.03116,186.87703 L 177.03116,184.7032 C 177.76032,184.7032 178.12491,184.6075 178.12491,184.41609 L 178.12491,181.39461 L 177.03116,181.66805 L 177.03116,179.5489 L 178.12491,179.2618 L 178.15225,175.22859 L 178.79483,175.22859 L 178.79483,179.09773 L 180.33975,178.75594 L 180.33975,174.6407 L 181.03702,174.6407 L 181.03702,178.59187 L 182.13077,178.34578 L 182.13077,180.46492 L 181.03702,180.72469 L 181.03702,183.74617 L 182.13077,183.50008"
       id="text4079" />
    <path
       style="font-size:18px;font-style:normal;font-variant:normal;font-weight:normal;font-stretch:normal;text-align:start;line-height:100%;writing-mode:lr-tb;text-anchor:start;fill:#000000;fill-opacity:1;fill-rule:nonzero;stroke:none;stroke-width:2;stroke-linecap:square;stroke-linejoin:miter;stroke-miterlimit:4;stroke-dashoffset:0;stroke-opacity:1;display:inline;font-family:Arial"
       d="M 113.96889,190.09212 L 112.50111,190.09212 L 112.50111,177.20735 L 114.08315,177.20735 L 114.08315,181.80403 C 114.75111,180.96615 115.60365,180.5472 116.64076,180.5472 C 117.21498,180.5472 117.75697,180.66439 118.26674,180.89876 C 118.78236,181.12728 119.20423,181.45248 119.53236,181.87434 C 119.86634,182.29037 120.12708,182.79427 120.31459,183.38606 C 120.50208,183.97787 120.59583,184.61068 120.59584,185.2845 C 120.59583,186.88411 120.20032,188.12044 119.40932,188.99348 C 118.61829,189.86653 117.66908,190.30305 116.56166,190.30305 C 115.46009,190.30305 114.59584,189.84309 113.96889,188.92317 L 113.96889,190.09212 M 113.95131,185.35481 C 113.95131,186.47396 114.10365,187.28255 114.40834,187.78059 C 114.90638,188.59505 115.58021,189.00227 116.42982,189.00227 C 117.12123,189.00227 117.71888,188.70345 118.22279,188.10579 C 118.72669,187.50228 118.97865,186.60579 118.97865,185.41634 C 118.97865,184.19759 118.73548,183.29818 118.24916,182.71809 C 117.76869,182.13802 117.18568,181.84798 116.50014,181.84798 C 115.80873,181.84798 115.21107,182.14974 114.70717,182.75325 C 114.20326,183.35091 113.95131,184.2181 113.95131,185.35481"
       id="text4123" />
    <path
       style="font-size:28px;font-style:normal;font-variant:normal;font-weight:normal;font-stretch:normal;text-align:start;line-height:100%;writing-mode:lr-tb;text-anchor:start;fill:#000000;fill-opacity:1;fill-rule:nonzero;stroke:none;stroke-width:2;stroke-linecap:square;stroke-linejoin:miter;stroke-miterlimit:4;stroke-dashoffset:0;stroke-opacity:1;display:inline;font-family:NWCV15"
       d="M 123.29311,186.07942 L 123.29311,189.90755 L 123.96303,189.12825 C 124.22735,188.80924 124.47344,188.49023 124.70131,188.17122 C 124.81068,188.00716 124.91094,187.85221 125.00209,187.70638 C 125.075,187.56966 125.16159,187.41015 125.26186,187.22786 C 125.33477,187.07291 125.40769,186.90429 125.48061,186.722 C 125.53529,186.61263 125.56263,186.49869 125.56264,186.3802 C 125.56263,186.19791 125.53529,186.01562 125.48061,185.83333 C 125.42592,185.64192 125.35756,185.49609 125.27553,185.39583 C 125.20261,185.28646 125.10235,185.20442 124.97475,185.14973 C 124.84714,185.11328 124.70586,185.08593 124.55092,185.0677 C 124.27748,185.06771 123.99948,185.19531 123.71693,185.45052 C 123.43438,185.69661 123.29311,185.90625 123.29311,186.07942 M 122.59584,191.42513 L 122.59584,176.08528 L 123.29311,176.08528 L 123.29311,185.04036 C 124.02227,184.46614 124.70586,184.17903 125.34389,184.17903 C 125.63555,184.17903 125.91355,184.26107 126.17787,184.42513 C 126.46042,184.60742 126.69284,184.84896 126.87514,185.14973 C 127.04831,185.46875 127.1349,185.78776 127.1349,186.10677 C 127.1349,186.61718 126.91159,187.13216 126.46498,187.65169 C 126.228,187.93424 125.95,188.25325 125.631,188.60872 C 125.31198,188.96419 125.02943,189.2513 124.78334,189.47005 L 122.59584,191.42513"
       id="text4127" />
    <path
       style="font-size:18px;font-style:normal;font-variant:normal;font-weight:normal;font-stretch:normal;text-align:start;line-height:100%;writing-mode:lr-tb;text-anchor:start;fill:#000000;fill-opacity:1;fill-rule:nonzero;stroke:none;stroke-width:2;stroke-linecap:square;stroke-linejoin:miter;stroke-miterlimit:4;stroke-dashoffset:0;stroke-opacity:1;display:inline;font-family:Arial"
       d="M 146.48367,194.4093 L 148.11844,194.61145 C 147.86062,195.56653 147.38308,196.30774 146.68582,196.83508 C 145.98855,197.36243 145.09792,197.6261 144.01395,197.6261 C 142.64871,197.6261 141.56473,197.20715 140.76199,196.36926 C 139.96512,195.52551 139.56668,194.34485 139.56668,192.82727 C 139.56668,191.25696 139.97098,190.03822 140.77957,189.17102 C 141.58816,188.30384 142.63699,187.87025 143.92606,187.87024 C 145.1741,187.87025 146.19363,188.29505 146.98465,189.14465 C 147.77566,189.99427 148.17116,191.18958 148.17117,192.73059 C 148.17116,192.82435 148.16823,192.96497 148.16238,193.15247 L 141.20145,193.15247 C 141.26004,194.17786 141.55008,194.96302 142.07156,195.50793 C 142.59304,196.05286 143.24343,196.32532 144.02274,196.32532 C 144.60281,196.32532 145.09792,196.17297 145.50809,195.86829 C 145.91824,195.5636 146.24343,195.07727 146.48367,194.4093 M 141.28934,191.85168 L 146.50125,191.85168 C 146.43093,191.06653 146.23171,190.47767 145.90359,190.08508 C 145.39968,189.47572 144.74636,189.17103 143.94363,189.17102 C 143.21707,189.17103 142.60476,189.41419 142.10672,189.90051 C 141.61453,190.38685 141.34207,191.03724 141.28934,191.85168"
       id="text4145" />
    <path
       style="font-size:28px;font-style:normal;font-variant:normal;font-weight:normal;font-stretch:normal;text-align:start;line-height:100%;writing-mode:lr-tb;text-anchor:start;fill:#000000;fill-opacity:1;fill-rule:nonzero;stroke:none;stroke-width:2;stroke-linecap:square;stroke-linejoin:miter;stroke-miterlimit:4;stroke-dashoffset:0;stroke-opacity:1;display:inline;font-family:NWCV15"
       d="M 150.87723,193.40247 L 150.87723,197.23059 L 151.54715,196.45129 C 151.81147,196.13228 152.05756,195.81327 152.28543,195.49426 C 152.3948,195.3302 152.49506,195.17525 152.58621,195.02942 C 152.65913,194.8927 152.74571,194.73319 152.84598,194.5509 C 152.91889,194.39596 152.99181,194.22734 153.06473,194.04504 C 153.11941,193.93567 153.14676,193.82174 153.14676,193.70325 C 153.14676,193.52096 153.11941,193.33867 153.06473,193.15637 C 153.01004,192.96497 152.94168,192.81913 152.85965,192.71887 C 152.78673,192.6095 152.68647,192.52747 152.55887,192.47278 C 152.43126,192.43632 152.28999,192.40898 152.13504,192.39075 C 151.8616,192.39075 151.58361,192.51835 151.30106,192.77356 C 151.0185,193.01965 150.87723,193.22929 150.87723,193.40247 M 150.17996,198.74817 L 150.17996,183.40833 L 150.87723,183.40833 L 150.87723,192.3634 C 151.60639,191.78919 152.28999,191.50208 152.92801,191.50208 C 153.21967,191.50208 153.49767,191.58411 153.76199,191.74817 C 154.04454,191.93046 154.27696,192.172 154.45926,192.47278 C 154.63243,192.79179 154.71902,193.1108 154.71902,193.42981 C 154.71902,193.94023 154.49571,194.4552 154.0491,194.97473 C 153.81212,195.25728 153.53413,195.57629 153.21512,195.93176 C 152.89611,196.28723 152.61355,196.57434 152.36746,196.79309 L 150.17996,198.74817"
       id="text4149" />
    <path
       style="font-size:18px;font-style:normal;font-variant:normal;font-weight:normal;font-stretch:normal;text-align:start;line-height:100%;writing-mode:lr-tb;text-anchor:start;fill:#000000;fill-opacity:1;fill-rule:nonzero;stroke:none;stroke-width:2;stroke-linecap:square;stroke-linejoin:miter;stroke-miterlimit:4;stroke-dashoffset:0;stroke-opacity:1;display:inline;font-family:Arial"
       d="M 163.44745,173.79919 C 162.8615,174.29724 162.29608,174.6488 161.75116,174.85388 C 161.21209,175.05896 160.63201,175.1615 160.01093,175.1615 C 158.98553,175.1615 158.19745,174.91248 157.64667,174.41443 C 157.09589,173.91052 156.82049,173.26892 156.8205,172.48962 C 156.82049,172.0326 156.92303,171.61658 157.12811,171.24158 C 157.33905,170.86072 157.61151,170.55603 157.9455,170.32751 C 158.28534,170.099 158.6662,169.92615 159.08807,169.80896 C 159.39862,169.72693 159.86737,169.64783 160.49432,169.57166 C 161.77166,169.41932 162.71209,169.23768 163.31561,169.02673 C 163.32147,168.80994 163.32439,168.67225 163.3244,168.61365 C 163.32439,167.96912 163.17498,167.51502 162.87616,167.25134 C 162.47186,166.89393 161.87127,166.71522 161.0744,166.71521 C 160.33026,166.71522 159.77948,166.84705 159.42206,167.11072 C 159.07049,167.36854 158.80975,167.8285 158.63983,168.4906 L 157.09296,168.27966 C 157.23358,167.61756 157.46503,167.08436 157.78729,166.68005 C 158.10956,166.26991 158.57538,165.95643 159.18475,165.73962 C 159.79412,165.51698 160.50018,165.40565 161.30292,165.40564 C 162.09979,165.40565 162.74725,165.4994 163.2453,165.68689 C 163.74334,165.8744 164.10955,166.1117 164.34393,166.3988 C 164.5783,166.68006 164.74236,167.03748 164.83612,167.47107 C 164.88885,167.74061 164.91521,168.22694 164.91522,168.93005 L 164.91522,171.03943 C 164.91521,172.51013 164.94744,173.44177 165.0119,173.83435 C 165.08221,174.22107 165.21697,174.59314 165.4162,174.95056 L 163.76385,174.95056 C 163.59979,174.62244 163.49432,174.23865 163.44745,173.79919 M 163.31561,170.26599 C 162.74139,170.50037 161.88006,170.69959 160.73163,170.86365 C 160.08123,170.9574 159.62127,171.06287 159.35175,171.18005 C 159.08221,171.29724 158.8742,171.4701 158.72772,171.69861 C 158.58124,171.92127 158.50799,172.17029 158.508,172.44568 C 158.50799,172.86756 158.6662,173.21912 158.9826,173.50037 C 159.30487,173.78162 159.77362,173.92224 160.38885,173.92224 C 160.99823,173.92224 161.54022,173.79041 162.01483,173.52673 C 162.48943,173.2572 162.83807,172.89099 163.06073,172.4281 C 163.23064,172.07068 163.31561,171.54334 163.31561,170.84607 L 163.31561,170.26599"
       id="text4099" />
    <path
       style="font-size:28px;font-style:normal;font-variant:normal;font-weight:normal;font-stretch:normal;text-align:start;line-height:100%;writing-mode:lr-tb;text-anchor:start;fill:#000000;fill-opacity:1;fill-rule:nonzero;stroke:none;stroke-width:2;stroke-linecap:square;stroke-linejoin:miter;stroke-miterlimit:4;stroke-dashoffset:0;stroke-opacity:1;display:inline;font-family:NWCV15"
       d="M 168.13983,170.93787 L 168.13983,174.76599 L 168.80975,173.98669 C 169.07407,173.66768 169.32017,173.34867 169.54803,173.02966 C 169.65741,172.8656 169.75767,172.71065 169.84882,172.56482 C 169.92173,172.4281 170.00832,172.2686 170.10858,172.0863 C 170.1815,171.93136 170.25441,171.76274 170.32733,171.58044 C 170.38202,171.47107 170.40936,171.35714 170.40936,171.23865 C 170.40936,171.05636 170.38202,170.87407 170.32733,170.69177 C 170.27264,170.50037 170.20428,170.35453 170.12225,170.25427 C 170.04933,170.1449 169.94907,170.06287 169.82147,170.00818 C 169.69387,169.97172 169.55259,169.94438 169.39764,169.92615 C 169.1242,169.92615 168.84621,170.05375 168.56366,170.30896 C 168.28111,170.55506 168.13983,170.76469 168.13983,170.93787 M 167.44257,176.28357 L 167.44257,160.94373 L 168.13983,160.94373 L 168.13983,169.8988 C 168.869,169.32459 169.55259,169.03748 170.19061,169.03748 C 170.48228,169.03748 170.76027,169.11951 171.0246,169.28357 C 171.30715,169.46586 171.53957,169.7074 171.72186,170.00818 C 171.89504,170.32719 171.98162,170.6462 171.98163,170.96521 C 171.98162,171.47563 171.75832,171.9906 171.31171,172.51013 C 171.07472,172.79268 170.79673,173.11169 170.47772,173.46716 C 170.15871,173.82263 169.87616,174.10974 169.63007,174.32849 L 167.44257,176.28357"
       id="text4103" />
    <path
       style="font-size:18px;font-style:normal;font-variant:normal;font-weight:normal;font-stretch:normal;text-align:start;line-height:100%;writing-mode:lr-tb;text-anchor:start;fill:#000000;fill-opacity:1;fill-rule:nonzero;stroke:none;stroke-width:2;stroke-linecap:square;stroke-linejoin:miter;stroke-miterlimit:4;stroke-dashoffset:0;stroke-opacity:1;display:inline;font-family:Arial"
       d="M 154.9001,177.05994 C 154.02705,175.95837 153.28877,174.66931 152.68526,173.19275 C 152.08174,171.71619 151.77998,170.18689 151.77998,168.60486 C 151.77998,167.21033 152.00557,165.8744 152.45674,164.59705 C 152.98408,163.11463 153.79854,161.63807 154.9001,160.16736 L 156.03389,160.16736 C 155.3249,161.38612 154.85615,162.25624 154.62764,162.77771 C 154.27021,163.58631 153.98896,164.43006 153.78389,165.30896 C 153.53193,166.40467 153.40596,167.50623 153.40596,168.61365 C 153.40596,171.43201 154.28193,174.24744 156.03389,177.05994 L 154.9001,177.05994 M 173.90205,177.05994 L 172.76826,177.05994 C 174.52022,174.24744 175.39619,171.43201 175.39619,168.61365 C 175.39619,167.51209 175.27021,166.41932 175.01826,165.33533 C 174.81904,164.45643 174.54072,163.61268 174.1833,162.80408 C 173.95479,162.27674 173.48311,161.39784 172.76826,160.16736 L 173.90205,160.16736 C 175.00361,161.63807 175.81807,163.11463 176.34541,164.59705 C 176.79658,165.8744 177.02217,167.21033 177.02217,168.60486 C 177.02217,170.18689 176.71748,171.71619 176.10811,173.19275 C 175.50459,174.66931 174.76924,175.95837 173.90205,177.05994"
       id="text4165" />
  </g>
</svg>
