<?xml version="1.0" encoding="utf-8"?>
<!-- Generator: Adobe Illustrator 24.3.0, SVG Export Plug-In . SVG Version: 6.00 Build 0)  -->
<svg version="1.1" id="Layer_1" xmlns="http://www.w3.org/2000/svg" xmlns:xlink="http://www.w3.org/1999/xlink" x="0px" y="0px"
	 viewBox="0 0 300 34.73" style="enable-background:new 0 0 300 34.73;" xml:space="preserve">
<style type="text/css">
	.st0{fill:#111212;}
	.st1{fill:#080908;}
	.st2{fill:#2A2A2A;}
	.st3{fill:#858585;}
	.st4{fill:#444444;}
	.st5{fill:#191A1A;}
</style>
<g id="music_5">
	<path class="st0" d="M19.82,16.77c-4.21,0-8.43-0.08-12.64,0.04c-1.72,0.05-2.44-0.31-2.36-2.22c0.16-3.48,0.15-6.97,0-10.45
		C4.74,2.2,5.5,1.75,7.21,1.9C8.48,2.02,9.78,2,11.05,1.91c2.18-0.16,3.93,0,5.19,2.35c1.03,1.91,3.23,2.57,5.47,2.57
		c3.21-0.01,6.41,0.02,9.62-0.01c2.13-0.02,3.14,0.88,3.18,3.13c0.13,6.81,0.18,6.81-6.72,6.81C25.14,16.77,22.48,16.77,19.82,16.77
		z"/>
	<path class="st1" d="M0,22.56c1.92-0.66,2.89-1.61,2.52-3.73c-0.2-1.14,0.84-0.94,1.53-0.94c9.61-0.01,19.22,0.04,28.83-0.05
		c2.03-0.02,1.73,1.23,1.56,2.31c-0.15,1,1.04,2.77-1.36,2.76c-10.8-0.04-21.6-0.03-32.39-0.06C0.46,22.85,0.23,22.66,0,22.56z"/>
	<path class="st2" d="M7.39,28.85c-0.37-1.16,1.15-3.58-2-3.45c-0.16,0.01-0.51-0.44-0.47-0.55c0.12-0.29,0.41-0.73,0.64-0.74
		c2.01-0.06,4.02-0.06,6.03-0.02c0.27,0.01,0.68,0.34,0.76,0.61c0.11,0.35-0.19,0.79-0.59,0.74c-2.74-0.3-1.86,1.71-1.95,3.06
		c-0.06,0.91-0.03,1.83-0.01,2.75c0.02,0.86,0.06,1.6-1.22,1.6c-1.3,0-1.22-0.76-1.2-1.61C7.4,30.52,7.39,29.79,7.39,28.85z"/>
	<path class="st2" d="M33.34,28.53c0,1.01-0.03,2.02,0.01,3.03c0.04,0.95-0.37,1.3-1.3,1.28c-0.82-0.02-1.43-0.08-1.41-1.15
		c0.04-2.11,0.03-4.23,0-6.34c-0.01-0.91,0.31-1.34,1.27-1.34c1.06-0.01,1.49,0.44,1.43,1.49C33.3,26.51,33.34,27.52,33.34,28.53z"
		/>
</g>
<g id="music_4">
	<path class="st0" d="M77.82,5.49c1.01-0.97,1.55-0.11,2.19,0.54c2.64,2.67,5.34,5.28,7.93,8c0.91,0.95,1.52,1.12,2.69,0.32
		c1.73-1.17,3.83-1.49,5.06,0.57c1.61,2.71,3.99,3.7,6.85,4.42c3.9,0.99,5.26,4.64,3.33,8.2c-1.2,2.22-2.97,3.96-4.96,5.43
		c-4.4,3.26-8.3,1.87-9.69-3.45c-0.62-2.4-1.6-4.39-3.89-5.67c-2.1-1.17-2.25-3.16-1.05-4.95c1.07-1.6,0.59-2.43-0.62-3.56
		c-2.61-2.44-5.01-5.09-7.62-7.52c-1-0.93-0.98-1.58-0.09-2.42C77.95,5.4,77.82,5.49,77.82,5.49z M92.53,22.95
		c1.51,0.1,2.45-0.9,2.52-2.28c0.07-1.4-0.86-2.45-2.3-2.54c-1.46-0.09-2.25,0.91-2.56,2.13C90.32,21.89,91.08,22.85,92.53,22.95z"
		/>
	<path class="st2" d="M77.95,5.4c0,0-0.12,0.09-0.12,0.09c-1.19-1.25,0.7-3.18-1.36-4.62c-1.37-0.95-2.36-1.05-3.56-0.65
		c-1.49,0.49-1.12,2.56-0.82,2.91c0.75,0.86,1.13,2.22,2.85,2.38C76,5.62,76.97,4.21,77.95,5.4z"/>
</g>
<g id="music_3">
	<path class="st0" d="M163.54,7.6c1.09-0.83,3.41-0.9,1.79-3.32c-0.45-0.67,0.16-0.9,2.38-0.03c0.64-0.97-1.46-1.4-0.52-2.3
		c0.86-0.82,1.13,0.54,1.76,0.67c0.89,0.19,1.33-0.45,1.63-1.11c0.23-0.51-0.65-1.84,0.68-1.43c0.91,0.28,1.55,1.45,2.27,2.26
		c0.04,0.05-0.3,0.61-0.42,0.59c-2.84-0.42-0.99,0.67-0.69,1.67c0.42,1.42-0.35,1.39-1.26,0.55c-0.25-0.23-0.56-0.39-0.82-0.56
		c-0.8,0.63-0.27,0.99,0.07,1.4c0.26,0.32,0.77,0.58,0.29,1.13c-0.43,0.5-0.8,0.3-1.1-0.09c-0.81-1.04-1.31-0.41-1.9,0.27
		c-1.44,1.66-2.95,3.26-4.4,4.92c-1.55,1.77-3.76,3.26-1.34,6.12c0.89,1.05,0.67,2.76-1.06,3.69c-0.94,0.51-1.74,1.34-2.48,2.15
		c-0.74,0.8-1.07,1.68-2.43,0.48c-0.94-0.84-1.98,0.37-2.69,1.22c-0.82,0.98-0.76,1.81,0.49,2.39c0.29,0.14,0.55,0.24,0.46,0.77
		c-0.82,5.06-6.06,7.33-10.23,4.37c-1.81-1.28-3.36-2.85-4.47-4.78c-1.84-3.17-1.21-5.97,2.02-7.62c1.25-0.64,2.65-3.16,4.52-0.41
		c0.47,0.7,1.45-0.35,2.03-0.89c0.8-0.73,1.44-1.78,0.55-2.62c-1.09-1.03-0.28-1.28,0.35-1.76c0.29-0.22,0.63-0.44,0.81-0.74
		c1.92-3.22,4.26-4.68,7.66-1.92c0.5,0.4,0.86,0.1,1.17-0.23c1.55-1.64,3.68-2.68,4.81-4.74L163.54,7.6z"/>
	<path class="st3" d="M164.82,12.11c2.08,6.6,4,12.7,5.93,18.8c0.15,0.49,0.14,0.91-0.41,1.13c-0.46,0.18-0.71-0.13-0.82-0.48
		c-1.85-6.04-3.69-12.08-5.5-18.13C163.98,13.25,164.28,12.98,164.82,12.11z"/>
	<path class="st3" d="M163.46,7.71c-1.2-0.45-3.86-5.81-3.41-6.92c0.08-0.2,0.38-0.45,0.58-0.46c0.54-0.01,0.7,0.48,0.84,0.9
		c0.7,2.12,1.38,4.24,2.07,6.37C163.54,7.6,163.46,7.71,163.46,7.71z"/>
</g>
<g id="music_2">
	<path class="st0" d="M213.19,24.56c3.3-5.23,5.14-10.54,6-16.84c3.1,4.4,6.9,7.12,11.3,9.18c2.01,0.94,2.48,3.09,1.52,5.25
		c-1.03,2.31-3.01,3.09-5.22,2.37C222.35,23.07,217.98,23.42,213.19,24.56z"/>
	<path class="st4" d="M214.55,8.88c0.56,0.72,1.11,1.46,1.69,2.16c0.8,0.97,1.56,1.92,0.02,2.9c-0.67,0.43-0.18,0.93-0.13,1.43
		c0.11,1.17-0.43,1.59-1.66,1.46c-2.91-0.33-5.84-0.53-8.76-0.77c-0.54-0.05-1.25-0.01-0.94-0.85c0.75-2.09,0.84-4.41,2.68-6.1
		c1.07-0.99,0.65-2.78,1.64-4.08c1.1-1.44,1.81-2.45,3.06-0.16c1.17-1.3-1.13-2.36,0.26-3.6c1.81-1.61,4.27-1.29,5.08,1.02
		c0.9,2.59,0.67,5.22,0.09,8.29c-0.96-1.02-1.67-1.77-2.38-2.52c-0.75-1.08-1.5-2.16-2.25-3.23C212.68,6.73,213.66,7.78,214.55,8.88
		z M210.58,11.4c0.61,0.43,1.22,0.87,1.82,1.3c1.05,0.85,2.05,1.83,3.92,1.77c-1-1.44-2.23-1.92-3.39-2.5
		c-0.61-0.43-1.23-0.85-1.84-1.28c-0.76-0.54-1.25-1.8-2.61-1.06C209.01,10.57,209.73,11.07,210.58,11.4z"/>
	<path class="st5" d="M233.46,34.47c-5.73,0-11.2,0-17.63,0c2.49-1.47,1.74-4.75,4.66-4.93C230.47,28.91,230.47,28.96,233.46,34.47z
		"/>
	<path class="st2" d="M225.74,25.74c2.2,0,4.4-0.04,6.6,0.01c1.61,0.04,2.48-0.7,2.39-2.27c-0.1-1.85,0.59-3.81-0.93-5.5
		c-0.73-0.81-0.13-1.74,0.68-2.34c0.67-0.5,1.38-0.47,2.03,0.03c0.82,0.63,1.31,1.62,0.59,2.37c-1.37,1.43-0.89,3.09-0.94,4.68
		c-0.09,3.08-2.37,5.64-5.4,5.7c-3.85,0.08-7.7,0-11.55,0.04c-1.07,0.01-1.73-0.17-1.7-1.48c0.03-1.24,0.74-1.26,1.62-1.25
		C221.34,25.75,223.54,25.74,225.74,25.74z"/>
	<path class="st4" d="M203.9,22.85c-0.57-5.4-0.29-5.73,4.9-5.49c1.54,0.07,3.09,0.25,4.61,0.51c0.56,0.1,1.63-0.33,1.59,0.83
		c-0.02,0.79-0.56,1.34-1.41,1.41C210.19,20.42,207.07,21.71,203.9,22.85z"/>
	<path class="st4" d="M213.64,21.35c-1.14,2.64-2.72,4.71-4.9,6.23c-2.12,1.48-3.79,0.79-4.66-1.6c-0.44-1.21-0.18-1.84,1.02-2.29
		C207.81,22.66,210.53,21.68,213.64,21.35z"/>
</g>
<path id="music_1" class="st5" d="M269.36,6.61c2.65-0.83,4.38-2.67,6.07-4.75c1.83-2.26,2.87-1.97,4.23,0.66
	c3.02,5.84,6.01,11.7,9.09,17.51c0.32,0.6,0.2,2.08,1.75,1.45c1.45-0.59,0.92-1.54,0.56-2.46c-0.57-1.48-0.23-3.33-1.74-4.43
	c-0.42-0.3-0.35-0.7-0.1-0.91c0.22-0.19,0.69-0.24,0.98-0.15c2.53,0.77,5.05,1.57,7.57,2.4c0.4,0.13,0.94,0.3,0.8,0.92
	c-0.05,0.2-0.32,0.5-0.49,0.5c-3.06,0.04-1.8,2.29-1.6,3.57c0.34,2.17,1.55,4.08,2.63,5.99c1.45,2.56,1.1,4.39-1.09,5.96
	c-2.88,2.07-5.15,2.06-7.02-0.23c-0.72-0.88-2.69-1.09-1.79-3.23c0.15-0.35-1.99-2.14-1.79-4.03c0.07-0.68-0.87-0.22-1.36-0.26
	c-0.59-0.06-0.9-0.74-0.6-0.91c2.01-1.15,0.32-2.28-0.08-3.19c-2.38-5.34-4.92-10.61-7.35-15.92c-0.6-1.32-1.07-1.63-2.25-0.47
	C274.07,6.34,271.96,7.21,269.36,6.61z M292,22.25c-0.55,0.36-1.57,0.36-1.43,1.26c0.09,0.57,0.29,1.61,1.26,1.41
	c0.52-0.11,1.4-0.31,1.38-1.08C293.19,23.13,292.86,22.44,292,22.25z M293.5,25.55c-0.21,0.54-1.41,0.18-1.22,1.26
	c0.11,0.61,0.39,1.48,1.03,1.43c0.6-0.04,1.62-0.31,1.6-1.17C294.9,26.48,294.62,25.64,293.5,25.55z M296.41,30.12
	c-0.11-0.72-0.3-1.4-1.15-1.2c-0.55,0.13-1.34,0.28-1.28,1.09c0.05,0.68,0.52,1.16,1.26,1.2C296.02,31.25,296.42,30.86,296.41,30.12
	z"/>
</svg>
