<?xml version="1.0" encoding="utf-8"?>
<!-- Generator: Adobe Illustrator 22.0.0, SVG Export Plug-In . SVG Version: 6.00 Build 0)  -->
<svg version="1.1" id="Layer_1" xmlns="http://www.w3.org/2000/svg" xmlns:xlink="http://www.w3.org/1999/xlink" x="0px" y="0px"
	 viewBox="0 0 266.1 168.6" style="enable-background:new 0 0 266.1 168.6;" xml:space="preserve">
<style type="text/css">
	.st0{fill:#FFFFFF;}
</style>
<g id="Layer_3">
</g>
<g id="Layer_4">
	<g>
		<path class="st0" d="M33.2,129.2h-11v39.4H11.5v-39.4h-11v-5.8h32.9v5.8H33.2z"/>
		<path class="st0" d="M68.3,168.5h-9.8V143c0-1.5-0.6-2.3-1.7-2.3h-8.2c-0.6,0-1.1,0.2-1.3,0.5c-0.2,0.2-0.4,0.9-0.4,1.8v25.5H37
			v-45h9.8V138l0,0c0.4-0.9,0.9-1.6,1.2-1.8c0.5-0.4,1.1-0.5,2-0.5h11.9c4.3,0,6.4,2.9,6.4,8.6C68.3,144.2,68.3,168.5,68.3,168.5z"
			/>
		<path class="st0" d="M104,168.5h-8.5l-0.4-3.4H95c-0.2,1-0.7,1.8-1.2,2.5s-1.3,0.9-2.3,0.9H78.6c-1.1,0-2.1-0.2-2.9-0.6
			c-0.9-0.4-1.5-1-2-1.8s-0.9-2-1.2-3.3c-0.2-1.3-0.4-2.9-0.4-4.9v-1.5c0-1.8,0.1-3.6,0.4-4.9c0.2-1.3,0.6-2.5,1.1-3.3
			c0.5-0.9,1.2-1.5,2-1.8c0.9-0.4,1.8-0.6,2.9-0.6h15.3v-3.8c0-0.9-0.5-1.3-1.3-1.3H78.7v-5h18.7c4.4,0,6.6,2.9,6.6,8.6
			C104,144.1,104,168.5,104,168.5z M94,150.7H83.6c-1.1,0-1.6,0.7-1.6,2.2v8.1c0,1.3,0.5,2.2,1.5,2.2h9c0.6,0,1-0.2,1.2-0.5
			c0.2-0.2,0.4-0.9,0.4-1.7V150.7L94,150.7z M95.2,124.1l-6.1,7.7h-4.2l3.9-7.7H95.2z"/>
		<path class="st0" d="M139.2,168.5h-9.8V143c0-1.5-0.6-2.3-1.7-2.3h-8.2c-0.6,0-1.1,0.2-1.3,0.5c-0.2,0.2-0.4,0.9-0.4,1.8v25.5
			h-9.8v-33.1h9.4h3.2h12.3c4.2,0,6.4,2.9,6.4,8.6V168.5L139.2,168.5z"/>
		<path class="st0" d="M175.2,168.5h-9.8V143c0-1.5-0.6-2.3-1.7-2.3h-8.2c-0.6,0-1.1,0.2-1.3,0.5c-0.2,0.2-0.4,0.9-0.4,1.8v25.5
			h-9.9v-45h9.8V138h0.1c0.4-0.9,0.9-1.6,1.2-1.8c0.5-0.4,1.1-0.5,2-0.5h11.9c4.3,0,6.4,2.9,6.4,8.6V168.5z"/>
		<path class="st0" d="M229,168.5h-22c-2.5,0-4-0.9-5.3-2.3c-1.2-1.5-1.8-3.7-1.8-6.6v-27.4c0-2.8,0.6-5,1.8-6.5
			c1.2-1.6,2.9-2.5,5.3-2.5h22v5.8h-16.6c-1.3,0-1.8,0.9-1.8,2.5v28.7c0,0.9,0.2,1.5,0.5,1.8c0.2,0.4,0.9,0.6,1.3,0.6H229V168.5z"/>
		<path class="st0" d="M265,168.5h-8.5l-0.4-3.4H256c-0.2,1-0.7,1.8-1.2,2.5s-1.3,0.9-2.3,0.9h-12.8c-1.1,0-2.1-0.2-2.9-0.6
			c-0.9-0.4-1.5-1-2-1.8c-0.5-0.9-0.9-2-1.2-3.3c-0.2-1.3-0.4-2.9-0.4-4.9v-1.5c0-1.8,0.1-3.6,0.4-4.9c0.2-1.3,0.6-2.5,1.1-3.3
			s1.2-1.5,2-1.8c0.9-0.4,1.8-0.6,2.9-0.6h15.3v-3.8c0-0.9-0.5-1.3-1.3-1.3h-14.1v-5h18.7c4.4,0,6.6,2.9,6.6,8.6L265,168.5
			L265,168.5z M255.2,150.7h-10.4c-1.1,0-1.6,0.7-1.6,2.2v8.1c0,1.3,0.5,2.2,1.5,2.2h9c0.6,0,1-0.2,1.2-0.5c0.2-0.2,0.4-0.9,0.4-1.7
			V150.7L255.2,150.7z"/>
	</g>
</g>
<g id="Layer_5">
	<g>
		<path class="st0" d="M101.9,83.4c-0.6,0-1.3,0.2-2.3,0.9c-1,0.6-1.5,1.1-1.5,1.6c0,0.6,0.4,0.9,1.1,0.9c2.2,0,3.3-0.5,3.3-1.5
			c0,0,0-0.1,0-0.2c0-0.1,0-0.2,0-0.2v-0.1c0-0.1,0-0.1,0-0.2C102.5,83.7,102.3,83.4,101.9,83.4z"/>
		<path class="st0" d="M56.6,73.3c-0.7,0-1.3,1.3-1.8,4c-0.5,2.3-0.7,4-0.7,5.2c0,0.9,0.1,1.7,0.2,2.6c0.2,1.3,0.5,2.1,1,2.1
			c0.9,0,1.6-1.2,2.1-3.6c0.4-1.8,0.7-3.4,0.7-4.7c0-0.9-0.1-2-0.2-3.2C57.4,74.3,57,73.3,56.6,73.3z"/>
		<path class="st0" d="M74.7,73.2c-0.5,0-1,0.2-1.5,0.5c-0.6,0.4-0.9,0.9-0.9,1.2v0.6c0,0.4,0,0.9,0,1.1c0,0.6,0,1.3,0,2.1v2v2.8
			c0,0.6,0,1.3,0,2.1c0,0,0,0.1,0,0.2c0,0.4,0.1,0.6,0.2,0.6c0.2,0,1-1.2,1.8-3.6c1.1-2.8,1.6-5,1.6-6.7
			C76,74.2,75.6,73.2,74.7,73.2z"/>
		<path class="st0" d="M264.5,78c-3.4-24.4-14.2-37.4-14.2-37.4c-7.5-9.9-21.8-16.8-35.5-16c-13.6,0.9-33,7.9-33,7.9
			c-17.3,9.8-30.4-2-30.4-2c-9.1-5.8-24.7-16.1-24.7-16.1C84.5-11.7,44.1,5.7,44.1,5.7C17.1,15.6,8,45.2,8,45.2
			c-9.9,23.4-7.9,67.5-7.9,67.5H266C266.7,107.3,264.5,78,264.5,78z M44.5,67.8c0.1,1.3,0.1,2.3,0.1,2.9c0,0.6,0,1.3-0.1,2.5
			c0,1.1-0.1,2-0.1,2.5s0,1.3,0.1,2.5c0,1.1,0.1,1.8,0.1,2.5c0,0.9-0.1,2-0.2,3.6c-0.1,1.6-0.2,2.8-0.2,3.6v1.2c0,0.9-0.2,1.3-1,1.3
			c-2.6,0-3.9-0.9-3.9-2.6v-0.9c0-0.9,0-2-0.1-3.6C39,81.6,39,80.4,39,79.7c0-0.6,0-1.2,0-1.8v-1c0-0.9-0.2-1.3-0.5-1.3
			s-0.9,0.1-1.3,0.2C36.5,75.9,36,76,35.8,76c-0.1,0-0.2,0-0.4,0c-0.1,0-0.2,0-0.4,0c-0.2,0-0.9,0.1-2.1,0.2c-0.1,0-0.2,0.5-0.2,1.5
			v2.6c0,1.2,0,2.5-0.1,3.7l-0.1,1.8c0,0.2,0,0.5,0,0.9c0,0.4,0,0.7,0,0.9c0,0.1,0,0.5,0,0.9c0,0.4,0,0.6,0,0.9c0,0.1,0,0.2,0,0.5
			c0,0.2,0,0.4,0,0.5c0,0.5-0.2,0.7-0.6,0.7c-0.1,0-0.2,0-0.6-0.1c-0.2,0-0.4-0.1-0.6-0.1h-0.5c-0.9,0-1.6-0.4-2.3-1.1
			c-0.5-0.5-0.7-2-0.7-4.4s0-4.9-0.1-7.7l-0.1-4.7c0-1.2,0.1-2.9,0.2-5.2c0.1-2.3,0.2-4,0.2-5.2c0-0.2,0-0.7,0-1.2s0-0.9,0-1.2
			c0-0.5,0.1-1,0.4-1.6c0.2-0.7,0.7-1,1.1-1c1.5,0,2.5,0.1,2.8,0.2c0.7,0.2,1,1.1,1,2.5c0,0.5,0,1.2-0.1,2.3c0,1-0.1,1.8-0.1,2.3
			s0,1.3,0.1,2.3c0,1,0.1,1.8,0.1,2.3c0,0.1,0,0.2,0,0.5c0,0.2,0,0.4,0,0.5c0,0.2,0.1,0.2,0.2,0.2c0.2,0,0.4,0,0.7,0
			c0.2,0,0.5,0,0.7,0c0.1,0,0.2,0,0.5,0c0.2,0,0.2,0,0.5,0s0.7,0,1.3-0.1c0.6-0.1,1-0.1,1.3-0.1c0.1,0,0.2,0,0.4,0s0.2,0,0.4,0
			c0.2,0,0.5-3.3,0.5-9.8c0-0.5,0-1.1-0.1-2c0-0.9-0.1-1.6-0.1-2c0-0.7,0.1-1.1,0.2-1.3c0.1-0.2,0.6-0.4,1.3-0.4
			c0.9,0,1.6,0.2,2.3,0.5c1,0.4,1.3,1,1.3,1.7c0,0.2,0,0.4,0,0.9c0,0.2,0,0.6,0,0.9s0,0.5,0.1,0.9c0,0.4,0.1,0.7,0.1,0.9
			c0,0.5,0,1.2-0.1,2.2c-0.1,1,0,1.3,0,1.8C44.5,65.6,44.5,66.5,44.5,67.8z M59.3,99.3c-0.2,0.7-0.5,1-0.7,1h-0.1h-0.1l0,0
			c-0.1,0.4-0.7,0.7-1.7,1c0,0-0.5,0.2-1.3,0.5c-0.6,0-1.2-0.2-1.8-1c-0.7-0.7-1-1.3-1-1.8c0-1,0.2-1.8,0.7-2.5
			c0.2-0.5,0.7-1.1,1.3-1.8c0.4-0.2,0.7-0.4,0.9-0.4s0.2,0.1,0.7,0.2c0.4,0.1,0.5,0.1,0.6,0.1s0.2,0,0.4,0l0,0
			c0.2,0,0.9,0.5,1.3,1.3c0.7,0.9,1,1.6,1,2C59.6,98.3,59.4,98.7,59.3,99.3z M64.4,77.7c-0.5,1.6-0.9,2.5-1.3,2.5
			c-0.1,0-0.1,0-0.2,0v0.1c0,2.2-0.5,4.5-1.3,6.7c-1.2,2.9-2.7,4.4-4.5,4.4c-0.5,0-1.2-0.2-2-0.6C53.2,90,52,89.5,51.5,89
			c-1.6-1.1-2.5-3.4-2.5-7.2c0-3.7,0.9-7.2,2.5-10.8c0.7-1.5,1.5-2.3,2.6-2.3c0.4,0,1.2,0.2,2.5,0.5c1.2,0.2,2,0.6,2.5,0.9
			c1.3,0.6,2.3,1.7,2.9,3.4v0.1l0.7-3.6c0.2-0.7,0.2-1.2,0.2-1.3c0-0.1,0.2-0.2,0.9-0.7c0.5-0.2,0.9-0.5,0.9-0.5
			c0.4,0,0.9,0.2,1.5,0.5c0.6,0.4,0.9,0.7,0.9,1.1c0,0.6-0.7,2.7-2,6.3C65,75.9,64.7,76.5,64.4,77.7z M80.1,81.4
			c-0.5,1.8-1.1,3.3-1.7,4.5c-1.7,3.3-3.1,5-4,5c-0.2,0-0.4,0-0.7-0.1c-0.2-0.1-0.5-0.1-0.6-0.1c-0.5,0-0.7,0.4-0.7,1.1v0.4
			c0,0.4,0,0.9,0,1.7s0,1.3,0,1.7c0,0.5,0,1.2-0.1,2.1C72,98.6,72,99.3,72,99.8v0.9c0,1.3-0.2,2-1,2s-1.3-0.2-2.3-0.7
			c-1-0.6-1.5-1.1-1.5-1.7c0-0.2,0-0.4,0-0.9s0-0.6,0-0.9s0-0.9-0.1-1.3c-0.1-0.6-0.1-1.1-0.1-1.3c0-0.4,0-1.1,0.1-2
			c0.1-0.9,0.1-1.5,0.1-2c0-0.2,0-0.7,0-1.2c0-0.5,0-1,0-1.2c0-0.7,0-1.8,0-3.3s0-2.6,0-3.3c0-0.2,0-0.9,0-1.5c0-0.6,0-1.1,0-1.5
			c0.1-0.5,0.1-0.9,0.1-1c0-0.2-0.2-0.5-0.7-1s-0.7-0.9-0.7-1.1c0,0.1,0.2-0.2,0.7-1.2c0.5-1,0.7-1.8,0.7-2.6c0-0.2,0-0.5,0-0.9
			s0-0.6,0-0.9c0-1.5,0-2.5,0-2.6c0.1-1.3,0.5-2,1.1-2c0.7,0,1.3,0.2,2.3,0.7c0.9,0.6,1.3,1.1,1.3,1.8v0.2c0,0.2,0,0.2,0.1,0.2
			c0.1,0,0.2,0,0.5-0.1c0.2,0,0.4-0.1,0.5-0.1c2.2,0,3.9,0.7,5.3,2c1.3,1.3,2.1,3.1,2.1,5.3C81,77.8,80.7,79.4,80.1,81.4z
			 M106.9,80.2c0,1.3,0,2.2,0,2.8c0,0.2,0,0.7,0,1.3c0,0.6,0,1,0,1.3s0,0.9,0,1.6s0,1.3,0,1.7c0,0.5,0,0.9,0,1.3c0,0.1,0,0.2,0,0.2
			c0,0.7-0.5,1.1-1.3,1.1c-1.2,0-2.1-0.5-2.7-1.6c-1.5,0.6-2.7,0.9-3.6,0.9c-1.1,0-2.1-0.5-3.1-1.6c-1-1.1-1.5-2.1-1.5-3.2
			c0-1.7,0.5-2.9,1.5-3.9c0.6-0.5,1.3-1,2.3-1.6c1.1-0.6,2-1,2.6-1c0.1,0,0.2,0,0.5,0s0.4,0,0.5,0c0.4,0,0.6-0.2,0.6-0.9
			c0-0.2,0-0.6,0-1.1s0-0.9,0-1.1c0-0.2,0-0.5,0-0.9c0-0.4,0-0.7,0-0.9c0-0.7-0.2-1.1-0.5-1.1c-0.2,0-0.7,0.5-1.3,1.6
			c-0.4,0.6-0.9,1.2-1.2,1.7c-0.2,0.2-0.4,0.7-0.7,1.2c-0.4,0.7-0.7,1-1.1,1c-0.4,0-1-0.2-1.6-0.5c-0.7-0.4-1.1-0.9-1.1-1.2
			s0.2-1.3,1-2.8c0.6-1.3,1.1-2.2,1.5-2.7l0.2-0.2c1.3-1.7,2.5-2.6,2.9-2.6c0.1,0,0.7,0.2,1.7,0.7c1.1,0.6,1.7,0.9,1.8,0.9
			c1.2,0.5,2,1.3,2.5,2.8c0.2,0.9,0.2,2.1,0.2,3.9C107.1,78,107.1,78.9,106.9,80.2z M107.4,66.9c-2.3,0-3.7-0.2-4-0.9l-0.5-0.7
			c-0.7-1-1.2-1.5-1.3-1.5c-0.2,0-0.9,0.5-1.5,1.6c-0.1,0.2-0.2,0.4-0.4,0.6c-0.4,0.5-1.7,0.9-4,0.9c-0.6,0-0.9-0.2-0.9-0.9
			c0-0.5,1-1.8,3.1-4c1.1-1.3,1.8-1.8,1.8-1.8h0.2c0.1,0,0.2,0,0.2,0c0.2,0,0.4,0,0.7-0.1c0.2-0.1,0.6-0.1,0.7-0.1
			c0.2,0,0.4,0,0.7,0.1c0.2,0.1,0.5,0.1,0.7,0.1c0,0,0.1,0,0.2,0c0.1,0,0.2,0,0.2,0c0.2,0,0.9,0.6,1.8,1.8c2.1,2.3,3.1,3.7,3.1,4
			C108.4,66.7,108,66.9,107.4,66.9z M132.1,79.2c0,1.1-0.2,4.5-0.7,10.2c-0.1,0.7-0.2,1.1-0.2,1.3c-0.2,0.2-0.6,0.2-1.3,0.2
			c-0.6,0-1.2-0.2-1.8-0.5c-0.7-0.4-1-0.9-1-1.3c0-0.2,0-0.6,0.1-1.3c0.2-2.8,0.2-5.4,0.2-7.9c0-1.7,0-3.2,0.1-4.5v-0.2
			c0-1.3-0.2-2-0.7-2c-0.4,0-0.9,0.9-1.5,2.5c-0.5,1.3-0.9,2.3-0.9,2.9c-0.2,0.9-0.2,2.2-0.4,3.8v0.9c-0.2,3.4-0.4,5-0.4,4.7v1.2
			c0,0.6-0.2,0.9-1,0.9c-0.2,0-0.6-0.1-1.1-0.2s-0.7-0.2-0.9-0.2c-0.7,0-1.2-0.4-1.3-1.1c0-0.2-0.1-0.9-0.1-2.1c0-0.9,0-2.2,0.1-4
			c0.1-1.8,0.1-3.1,0.1-4c0-2.9-0.2-4.3-0.6-4.3c-1,0-1.8,1.3-2.5,4.3c-0.5,2.2-0.7,4-0.7,5.5c0,0.4,0,1,0.1,1.8
			c0,0.9,0.1,1.3,0.1,1.8c0,2.7-0.2,4-1,4c-1.6,0-2.5-0.2-2.7-1c0-0.1-0.2-0.2-0.7-0.4c-0.2-0.2-0.5-0.6-0.5-1.3c0-0.6,0-1.2,0-1.8
			v-1.1v-4.5c0-0.2,0-0.9,0-1.3c0-0.6,0-1.1,0-1.3c0-0.9,0-2.3-0.1-4c-0.1-1.8-0.1-3.2-0.1-4c0-0.9,0.6-1.2,1.8-1.2
			c1.5,0,2.2,0.2,2.2,1c0,0.1,0,0.2,0,0.2c-0.1,0.9-0.1,1.6-0.1,2.2v0.2c0,0.1,0.1,0.1,0.2,0.1c0.1,0,0.2-0.2,0.2-0.4
			c1.2-1.8,2.5-2.6,3.4-2.6c1.2,0,2.5,0.7,3.6,2.2c0.2,0.2,0.2,0.2,0.2,0.2c0.1,0,0.2-0.2,0.4-0.5c0.1-0.2,0.2-0.5,0.4-0.7
			c0.9-1.2,2.2-1.7,4.2-1.7c1.8,0,2.9,0.6,3.6,1.7c0.4,0.9,0.7,2.3,0.7,4.3v3.7h0.5V79.2z"/>
	</g>
</g>
</svg>
