<?xml version="1.0" encoding="utf-8"?>
<!-- Generator: Adobe Illustrator 22.0.0, SVG Export Plug-In . SVG Version: 6.00 Build 0)  -->
<svg version="1.1" xmlns="http://www.w3.org/2000/svg" xmlns:xlink="http://www.w3.org/1999/xlink" x="0px" y="0px"
	 viewBox="0 0 266.5 168.9" style="enable-background:new 0 0 266.5 168.9;" xml:space="preserve">
<style type="text/css">
	.st0{display:none;}
	.st1{display:inline;fill:#898989;}
	.st2{fill:#FFFFFF;}
</style>
<g id="Layer_2" class="st0">
	<rect x="193" y="-49.8" class="st1" width="500" height="250"/>
</g>
<g id="Layer_3">
</g>
<g id="Layer_4">
	<g>
		<path class="st2" d="M33.4,129.6H22.3v39.4H11.6v-39.4H0.5v-5.8h32.9V129.6z"/>
		<path class="st2" d="M68.5,168.9h-9.8v-25.6c0-1.5-0.6-2.3-1.7-2.3h-8.2c-0.6,0-1.1,0.2-1.4,0.5c-0.3,0.3-0.4,0.9-0.4,1.8v25.6
			h-9.8v-45.1h9.8v14.5H47c0.4-0.9,0.8-1.6,1.2-1.9c0.5-0.4,1.1-0.5,2-0.5h11.9c4.3,0,6.4,2.9,6.4,8.6V168.9z"/>
		<path class="st2" d="M104.2,168.9h-8.5l-0.4-3.4h-0.1c-0.3,1-0.7,1.9-1.2,2.5c-0.5,0.6-1.3,0.9-2.3,0.9H78.8
			c-1.1,0-2.1-0.2-2.9-0.6c-0.8-0.4-1.5-1-2-1.9c-0.5-0.9-0.9-2-1.2-3.3c-0.2-1.4-0.4-3-0.4-4.9v-1.5c0-1.9,0.1-3.6,0.4-4.9
			c0.2-1.4,0.6-2.5,1.1-3.3c0.5-0.9,1.2-1.5,2-1.9c0.8-0.4,1.8-0.6,3-0.6h15.4v-3.8c0-0.9-0.5-1.4-1.4-1.4H78.9v-5h18.7
			c4.4,0,6.6,2.9,6.6,8.6V168.9z M94.3,151.1H83.9c-1.1,0-1.6,0.7-1.6,2.2v8.1c0,1.4,0.5,2.2,1.5,2.2h9c0.6,0,1-0.2,1.2-0.5
			c0.3-0.3,0.4-0.9,0.4-1.7V151.1z M95.4,124.4l-6.1,7.7h-4.2l3.9-7.7H95.4z"/>
		<path class="st2" d="M139.5,168.9h-9.8v-25.6c0-1.5-0.6-2.3-1.7-2.3h-8.2c-0.6,0-1.1,0.2-1.4,0.5c-0.3,0.3-0.4,0.9-0.4,1.8v25.6
			h-9.8v-33.2h9.5h3.2h12.3c4.2,0,6.4,2.9,6.4,8.6V168.9z"/>
		<path class="st2" d="M175.4,168.9h-9.8v-25.6c0-1.5-0.6-2.3-1.7-2.3h-8.2c-0.6,0-1.1,0.2-1.4,0.5c-0.3,0.3-0.4,0.9-0.4,1.8v25.6
			H144v-45.1h9.8v14.5h0.1c0.4-0.9,0.8-1.6,1.2-1.9c0.5-0.4,1.1-0.5,2-0.5H169c4.3,0,6.4,2.9,6.4,8.6V168.9z"/>
		<path class="st2" d="M229.4,168.9h-22c-2.4,0-4.1-0.8-5.3-2.3c-1.2-1.5-1.8-3.7-1.8-6.6v-27.4c0-2.8,0.6-5,1.8-6.5
			c1.2-1.6,3-2.4,5.3-2.4h22v5.8h-16.6c-1.3,0-1.9,0.8-1.9,2.4v28.7c0,0.9,0.2,1.5,0.5,1.9c0.3,0.4,0.8,0.6,1.4,0.6h16.6V168.9z"/>
		<path class="st2" d="M265.3,168.9h-8.5l-0.4-3.4h-0.1c-0.3,1-0.7,1.9-1.2,2.5c-0.5,0.6-1.3,0.9-2.3,0.9H240
			c-1.1,0-2.1-0.2-2.9-0.6c-0.8-0.4-1.5-1-2-1.9c-0.5-0.9-0.9-2-1.2-3.3c-0.2-1.4-0.4-3-0.4-4.9v-1.5c0-1.9,0.1-3.6,0.4-4.9
			c0.2-1.4,0.6-2.5,1.1-3.3c0.5-0.9,1.2-1.5,2-1.9c0.8-0.4,1.8-0.6,3-0.6h15.4v-3.8c0-0.9-0.5-1.4-1.4-1.4h-14.1v-5h18.7
			c4.4,0,6.6,2.9,6.6,8.6V168.9z M255.5,151.1h-10.4c-1.1,0-1.6,0.7-1.6,2.2v8.1c0,1.4,0.5,2.2,1.5,2.2h9c0.6,0,1-0.2,1.2-0.5
			c0.3-0.3,0.4-0.9,0.4-1.7V151.1z"/>
	</g>
</g>
<g id="Layer_5">
	<g>
		<path class="st2" d="M102.1,83.7c-0.6,0-1.3,0.3-2.3,0.8c-1,0.6-1.5,1.1-1.5,1.6c0,0.6,0.4,0.9,1.1,0.9c2.2,0,3.3-0.5,3.3-1.5
			c0,0,0-0.1,0-0.2c0-0.1,0-0.2,0-0.2v-0.1c0-0.1,0-0.1,0-0.2C102.7,84,102.5,83.7,102.1,83.7z"/>
		<path class="st2" d="M56.8,73.6c-0.7,0-1.3,1.4-1.9,4.1c-0.5,2.3-0.7,4-0.7,5.1c0,0.8,0.1,1.7,0.2,2.6c0.2,1.4,0.5,2.1,1,2.1
			c0.8,0,1.6-1.2,2.1-3.6c0.4-1.9,0.7-3.4,0.7-4.7c0-0.9-0.1-2-0.3-3.2C57.6,74.5,57.2,73.6,56.8,73.6z"/>
		<path class="st2" d="M74.9,73.4c-0.5,0-1,0.2-1.5,0.5c-0.6,0.4-0.9,0.8-0.9,1.2l0,0.6c0,0.4,0,0.8,0,1.1c0,0.6,0,1.3,0,2.1l0,2
			v2.8c0,0.6,0,1.3,0,2.1c0,0,0,0.1,0,0.2c0,0.4,0.1,0.6,0.2,0.6c0.3,0,1-1.2,1.9-3.6c1.1-2.8,1.6-5,1.6-6.8
			C76.2,74.4,75.8,73.4,74.9,73.4z"/>
		<path class="st2" d="M264.8,78.2c-3.5-24.5-14.3-37.5-14.3-37.5c-7.5-9.9-21.9-16.8-35.5-16S182,32.5,182,32.5
			c-17.3,9.8-30.5-2-30.5-2c-9.1-5.8-24.7-16.1-24.7-16.1C84.6-11.8,44.1,5.7,44.1,5.7C17.1,15.6,8,45.3,8,45.3
			c-10,23.4-7.8,67.6-7.8,67.6h266C267.1,107.6,264.8,78.2,264.8,78.2z M44.7,68.1c0.1,1.3,0.1,2.3,0.1,2.9c0,0.6,0,1.4-0.1,2.5
			c0,1.1-0.1,2-0.1,2.5c0,0.5,0,1.4,0.1,2.4c0,1.1,0.1,1.9,0.1,2.4c0,0.8-0.1,2-0.2,3.6c-0.1,1.6-0.2,2.8-0.2,3.6v1.2
			c0,0.9-0.3,1.4-1,1.4c-2.6,0-3.9-0.9-3.9-2.6v-0.9c0-0.8,0-2-0.1-3.6c-0.1-1.6-0.1-2.8-0.1-3.6c0-0.6,0-1.2,0-1.8v-1
			c0-0.9-0.2-1.3-0.5-1.3c-0.3,0-0.8,0.1-1.4,0.2c-0.6,0.1-1.1,0.2-1.4,0.2c-0.1,0-0.2,0-0.4,0s-0.3,0-0.4,0c-0.2,0-0.9,0.1-2.1,0.3
			c-0.1,0-0.2,0.5-0.2,1.5v2.6c0,1.2,0,2.5-0.1,3.7l-0.1,1.9c0,0.2,0,0.5,0,0.8c0,0.4,0,0.7,0,0.8s0,0.5,0,0.8c0,0.3,0,0.6,0,0.8
			c0,0.1,0,0.3,0,0.5c0,0.2,0,0.4,0,0.5c0,0.5-0.2,0.7-0.6,0.7c-0.1,0-0.3,0-0.6-0.1c-0.3,0-0.4-0.1-0.6-0.1h-0.5
			c-0.9,0-1.6-0.4-2.3-1.1c-0.5-0.5-0.7-2-0.7-4.4c0-2.4,0-4.9-0.1-7.7l-0.1-4.7c0-1.2,0.1-2.9,0.2-5.2c0.1-2.3,0.2-4,0.2-5.2
			c0-0.3,0-0.7,0-1.2c0-0.5,0-0.9,0-1.2c0-0.5,0.1-1,0.4-1.6c0.3-0.7,0.7-1,1.1-1c1.5,0,2.4,0.1,2.8,0.3c0.7,0.3,1,1.1,1,2.4
			c0,0.5,0,1.2-0.1,2.3c0,1-0.1,1.8-0.1,2.3c0,0.5,0,1.3,0.1,2.3c0,1,0.1,1.8,0.1,2.3c0,0.1,0,0.3,0,0.5c0,0.2,0,0.4,0,0.5
			c0,0.2,0.1,0.3,0.2,0.3c0.2,0,0.4,0,0.7,0s0.5,0,0.7,0c0.1,0,0.3,0,0.5,0c0.2,0,0.3,0,0.5,0c0.3,0,0.7,0,1.3-0.1
			c0.6-0.1,1-0.1,1.3-0.1c0.1,0,0.2,0,0.4,0c0.2,0,0.3,0,0.4,0c0.3,0,0.5-3.3,0.5-9.8c0-0.5,0-1.1-0.1-2c0-0.9-0.1-1.6-0.1-2
			c0-0.7,0.1-1.1,0.3-1.4s0.6-0.4,1.3-0.4c0.8,0,1.6,0.2,2.3,0.5c1,0.4,1.4,1,1.4,1.7c0,0.2,0,0.4,0,0.8c0,0.3,0,0.6,0,0.8
			c0,0.2,0,0.5,0.1,0.9c0,0.4,0.1,0.7,0.1,0.9c0,0.5,0,1.2-0.1,2.2c-0.1,1-0.1,1.7-0.1,2.2C44.6,65.8,44.6,66.8,44.7,68.1z
			 M59.5,99.6c-0.2,0.7-0.5,1-0.7,1c0,0-0.1,0-0.1,0c0,0-0.1,0-0.1,0c0,0,0,0,0,0c-0.1,0.4-0.7,0.7-1.7,1c0,0-0.5,0.2-1.3,0.5
			c-0.6,0-1.2-0.3-1.9-1c-0.7-0.7-1-1.3-1-1.9c0-1,0.2-1.8,0.7-2.4c0.2-0.5,0.7-1.1,1.4-1.9c0.4-0.3,0.7-0.4,0.8-0.4
			c0.1,0,0.3,0.1,0.7,0.2c0.4,0.2,0.5,0.2,0.6,0.2c0.1,0,0.3,0,0.4,0h0c0.3,0,0.8,0.5,1.4,1.4c0.7,0.9,1,1.6,1,2
			C59.7,98.6,59.6,99,59.5,99.6z M64.5,78c-0.5,1.6-0.9,2.4-1.3,2.4c-0.1,0-0.1,0-0.2,0v0.1c0,2.2-0.5,4.5-1.4,6.8
			c-1.2,3-2.7,4.4-4.6,4.4c-0.5,0-1.2-0.2-2-0.6c-1.7-0.8-2.9-1.4-3.5-1.8c-1.6-1.1-2.4-3.5-2.4-7.2c0-3.7,0.8-7.3,2.4-10.8
			c0.7-1.5,1.5-2.3,2.6-2.3c0.4,0,1.2,0.2,2.4,0.5c1.2,0.3,2,0.6,2.4,0.8c1.3,0.6,2.3,1.7,3,3.5l0,0.1l0.7-3.6
			c0.2-0.7,0.3-1.2,0.3-1.4c0-0.1,0.3-0.3,0.8-0.7c0.5-0.3,0.8-0.5,0.9-0.5c0.4,0,0.9,0.2,1.5,0.5c0.6,0.4,0.9,0.7,0.9,1.1
			c0,0.6-0.7,2.7-2,6.3C65.1,76.1,64.9,76.8,64.5,78z M80.3,81.7c-0.5,1.8-1.1,3.3-1.7,4.5c-1.7,3.3-3.1,5-4.1,5
			c-0.2,0-0.4,0-0.7-0.1c-0.3-0.1-0.5-0.1-0.6-0.1c-0.5,0-0.7,0.4-0.7,1.1v0.4c0,0.4,0,0.9,0,1.7c0,0.8,0,1.3,0,1.7
			c0,0.5,0,1.2-0.1,2.1c-0.1,0.9-0.1,1.6-0.1,2.1v0.8c0,1.3-0.3,2-1,2c-0.7,0-1.4-0.2-2.3-0.7c-1-0.6-1.5-1.1-1.5-1.7
			c0-0.2,0-0.4,0-0.8c0-0.4,0-0.6,0-0.8c0-0.3,0-0.8-0.1-1.4c-0.1-0.6-0.1-1.1-0.1-1.4c0-0.4,0-1.1,0.1-2c0.1-0.9,0.1-1.5,0.1-2
			c0-0.3,0-0.7,0-1.2c0-0.5,0-1,0-1.2c0-0.7,0-1.8,0-3.3c0-1.5,0-2.6,0-3.3c0-0.3,0-0.8,0-1.5c0-0.6,0-1.1,0-1.5
			c0.1-0.5,0.1-0.8,0.1-1c0-0.2-0.2-0.5-0.7-1s-0.7-0.9-0.7-1.1c0,0.1,0.2-0.3,0.7-1.2c0.5-0.9,0.7-1.8,0.7-2.6c0-0.2,0-0.5,0-0.8
			c0-0.4,0-0.6,0-0.8c0-1.5,0-2.4,0-2.6c0.1-1.3,0.5-2,1.1-2c0.7,0,1.4,0.2,2.3,0.7c0.9,0.6,1.4,1.1,1.4,1.8v0.3
			c0,0.2,0,0.3,0.1,0.3c0.1,0,0.3,0,0.5-0.1c0.2,0,0.4-0.1,0.5-0.1c2.2,0,3.9,0.7,5.3,2c1.4,1.4,2.1,3.1,2.1,5.3
			C81.2,78.1,80.9,79.7,80.3,81.7z M107.2,80.4c0,1.3,0,2.2,0,2.8c0,0.3,0,0.7,0,1.3s0,1,0,1.3c0,0.4,0,0.9,0,1.6s0,1.3,0,1.7
			c0,0.5,0,0.9,0,1.3c0,0.1,0,0.2,0,0.2c0,0.7-0.5,1.1-1.4,1.1c-1.2,0-2.1-0.5-2.7-1.6c-1.5,0.6-2.7,0.9-3.6,0.9
			c-1.1,0-2.1-0.5-3.1-1.6c-1-1.1-1.5-2.1-1.5-3.2c0-1.7,0.5-3,1.5-3.9c0.6-0.5,1.4-1,2.3-1.6c1.1-0.6,2-1,2.6-1c0.1,0,0.3,0,0.5,0
			c0.2,0,0.4,0,0.5,0c0.4,0,0.6-0.3,0.6-0.9c0-0.2,0-0.6,0-1.1c0-0.5,0-0.9,0-1.1c0-0.2,0-0.5,0-0.8c0-0.4,0-0.7,0-0.8
			c0-0.7-0.2-1.1-0.5-1.1c-0.3,0-0.7,0.5-1.4,1.6c-0.4,0.6-0.8,1.2-1.2,1.7c-0.2,0.3-0.4,0.7-0.7,1.2c-0.4,0.7-0.7,1-1.1,1
			c-0.4,0-1-0.2-1.6-0.5c-0.7-0.4-1.1-0.8-1.1-1.2c0-0.4,0.3-1.4,1-2.8c0.6-1.3,1.1-2.2,1.5-2.7l0.3-0.3c1.4-1.7,2.4-2.6,3-2.6
			c0.1,0,0.7,0.2,1.7,0.7c1.1,0.6,1.7,0.9,1.9,0.9c1.2,0.5,2,1.4,2.4,2.8c0.2,0.8,0.3,2.1,0.3,3.9C107.3,78.2,107.3,79.2,107.2,80.4
			z M107.7,67.2c-2.3,0-3.7-0.3-4.1-0.8l-0.5-0.7c-0.7-1-1.2-1.5-1.4-1.5c-0.3,0-0.8,0.5-1.5,1.6c-0.1,0.2-0.2,0.4-0.4,0.6
			c-0.4,0.5-1.7,0.8-4.1,0.8c-0.6,0-0.9-0.3-0.9-0.8c0-0.5,1-1.8,3.1-4.1c1.1-1.3,1.8-1.9,1.9-1.9c0.1,0,0.2,0,0.3,0
			c0.1,0,0.2,0,0.3,0c0.2,0,0.4,0,0.7-0.1c0.3-0.1,0.6-0.1,0.7-0.1c0.2,0,0.4,0,0.7,0.1s0.5,0.1,0.7,0.1c0,0,0.1,0,0.2,0
			c0.1,0,0.2,0,0.3,0c0.2,0,0.8,0.6,1.9,1.9c2.1,2.3,3.1,3.7,3.1,4.1C108.6,66.9,108.3,67.2,107.7,67.2z M132.4,79.5
			c0,1.1-0.2,4.5-0.7,10.2c-0.1,0.7-0.2,1.1-0.3,1.3c-0.2,0.2-0.6,0.3-1.3,0.3c-0.6,0-1.2-0.2-1.8-0.5c-0.7-0.4-1-0.9-1-1.4
			c0-0.2,0-0.6,0.1-1.3c0.2-2.8,0.3-5.4,0.3-7.8c0-1.7,0-3.2,0.1-4.5l0-0.3c0-1.4-0.2-2-0.7-2c-0.4,0-0.9,0.8-1.5,2.5
			c-0.5,1.3-0.8,2.3-0.9,3c-0.2,0.9-0.3,2.2-0.4,3.8v0.8c-0.2,3.5-0.4,5-0.4,4.7v1.2c0,0.6-0.3,0.9-1,0.9c-0.3,0-0.6-0.1-1.1-0.2
			s-0.7-0.2-0.8-0.2c-0.7,0-1.2-0.4-1.3-1.1c0-0.2-0.1-0.9-0.1-2.1c0-0.9,0-2.2,0.1-4c0.1-1.8,0.1-3.1,0.1-4c0-2.9-0.2-4.3-0.6-4.3
			c-1,0-1.8,1.4-2.4,4.3c-0.5,2.2-0.7,4-0.7,5.5c0,0.4,0,1,0.1,1.8c0,0.8,0.1,1.4,0.1,1.8c0,2.7-0.3,4-1,4c-1.6,0-2.5-0.3-2.7-1
			c0-0.1-0.2-0.2-0.7-0.4c-0.3-0.2-0.5-0.6-0.5-1.3c0-0.6,0-1.2,0-1.9v-1.1v-4.5c0-0.3,0-0.8,0-1.4c0-0.6,0-1.1,0-1.4
			c0-0.9,0-2.3-0.1-4.1s-0.1-3.2-0.1-4.1c0-0.8,0.6-1.2,1.8-1.2c1.5,0,2.2,0.3,2.2,1c0,0.1,0,0.2,0,0.2c-0.1,0.8-0.1,1.6-0.1,2.2
			v0.2c0,0.1,0.1,0.1,0.2,0.1c0.1,0,0.2-0.2,0.3-0.4c1.2-1.8,2.4-2.6,3.4-2.6c1.2,0,2.4,0.7,3.6,2.2c0.2,0.2,0.3,0.3,0.3,0.3
			c0.1,0,0.3-0.2,0.4-0.5c0.1-0.2,0.2-0.5,0.4-0.7c0.8-1.2,2.2-1.7,4.2-1.7c1.8,0,3,0.6,3.6,1.7c0.4,0.8,0.7,2.3,0.7,4.3V79.5z"/>
	</g>
</g>
</svg>
